<?xml version="1.0" standalone="no"?>
<!DOCTYPE svg PUBLIC "-//W3C//DTD SVG 20010904//EN"
 "http://www.w3.org/TR/2001/REC-SVG-20010904/DTD/svg10.dtd">
<svg version="1.0" xmlns="http://www.w3.org/2000/svg"
 width="500.000000pt" height="500.000000pt" viewBox="0 0 500.000000 500.000000"
 preserveAspectRatio="xMidYMid meet">

<g transform="translate(0.000000,500.000000) scale(0.100000,-0.100000)"
fill="#000000" stroke="none">
<path d="M2350 4063 c-73 -30 -103 -95 -76 -166 27 -71 101 -95 186 -61 45 18
46 20 24 45 -14 15 -18 16 -42 3 -37 -19 -55 -18 -88 9 l-29 22 45 7 c25 3 66
7 92 7 26 1 50 6 53 11 12 19 -16 79 -46 101 -31 22 -92 33 -119 22z m81 -64
c28 -28 12 -39 -53 -39 -52 0 -59 9 -28 40 26 26 55 25 81 -1z"/>
<path d="M2563 3953 c-6 -65 -11 -119 -10 -119 1 -1 16 -5 33 -8 l32 -7 7 70
c8 77 29 111 70 111 21 0 25 5 25 30 0 33 -16 38 -52 19 -15 -8 -22 -8 -27 0
-4 6 -21 13 -37 17 l-30 6 -11 -119z"/>
<path d="M2065 4008 c-11 -6 -24 -17 -28 -25 -6 -10 -12 -11 -22 -3 -8 7 -21
7 -38 1 l-25 -10 17 -68 c60 -228 77 -261 120 -234 11 7 12 17 2 54 -6 25 -11
48 -11 50 0 3 15 5 33 4 52 -1 92 20 110 59 21 43 21 63 1 114 -25 61 -103 90
-159 58z m89 -70 c17 -24 21 -65 8 -85 -4 -7 -19 -16 -32 -21 -59 -22 -111 49
-76 103 22 33 78 35 100 3z"/>
<path d="M3152 3897 c-28 -46 -53 -99 -57 -119 -13 -70 37 -133 127 -158 48
-14 105 17 146 80 17 27 32 52 32 55 0 3 12 24 26 46 14 23 24 42 22 43 -2 1
-15 10 -30 19 l-27 17 -27 -48 c-77 -135 -92 -152 -133 -152 -29 0 -71 39 -71
66 0 23 40 103 87 173 l24 35 -32 13 c-17 7 -33 13 -34 13 -2 0 -26 -37 -53
-83z"/>
<path d="M1786 3900 c-76 -24 -117 -111 -82 -178 54 -104 201 -85 246 32 31
84 -70 175 -164 146z m79 -75 c30 -29 32 -68 5 -95 -42 -42 -110 -8 -110 54 0
63 60 87 105 41z"/>
<path d="M1511 3833 l-22 -18 28 -37 c15 -20 57 -77 93 -125 35 -48 68 -92 72
-97 9 -11 48 21 48 38 -1 15 -173 249 -186 253 -6 2 -21 -4 -33 -14z"/>
<path d="M2844 3836 c-15 -40 21 -80 54 -60 37 24 21 74 -25 74 -13 0 -26 -6
-29 -14z"/>
<path d="M3432 3657 l-103 -122 27 -23 c15 -13 30 -20 34 -15 3 4 42 51 85
103 43 52 85 103 94 113 13 16 12 20 -10 42 l-24 25 -103 -123z"/>
<path d="M1433 3646 c-43 -19 -73 -70 -73 -123 0 -34 6 -48 34 -77 30 -32 39
-36 85 -36 46 0 56 4 91 38 24 22 43 50 46 70 6 29 4 32 -20 32 -14 0 -26 -6
-26 -12 0 -19 -42 -65 -65 -72 -11 -3 -27 -1 -35 4 -12 8 -3 22 51 74 l66 65
-22 21 c-29 27 -90 35 -132 16z m77 -54 c0 -16 -78 -84 -89 -78 -16 10 -14 38
5 64 11 15 25 22 50 22 19 0 34 -4 34 -8z"/>
<path d="M3719 3616 c-26 -12 -77 -35 -115 -52 -37 -16 -107 -47 -155 -70
l-88 -41 21 -21 21 -20 51 24 c28 13 119 54 202 92 l151 68 -17 22 c-10 12
-20 22 -22 21 -1 0 -24 -11 -49 -23z"/>
<path d="M3703 3451 c-126 -81 -146 -126 -102 -219 43 -88 131 -106 220 -45
24 16 63 42 87 58 23 15 42 30 42 34 0 3 -9 17 -19 30 l-18 23 -85 -56 c-91
-60 -133 -70 -160 -38 -46 54 -30 87 81 159 l90 59 -22 27 -22 28 -92 -60z"/>
<path d="M1267 3475 c-17 -24 -17 -25 28 -96 26 -39 44 -73 41 -76 -3 -3 -34
2 -70 11 -36 9 -73 16 -83 16 -21 0 -49 -39 -36 -50 4 -4 55 -17 113 -30 58
-13 110 -25 117 -27 15 -6 46 54 39 73 -5 13 -127 204 -130 204 -1 0 -9 -12
-19 -25z"/>
<path d="M1106 3189 c-57 -45 -71 -117 -35 -176 25 -39 53 -53 111 -53 32 0
47 7 73 33 36 36 58 97 49 134 -7 26 -8 27 -35 13 -12 -7 -19 -21 -19 -41 0
-18 -9 -39 -25 -54 -25 -26 -61 -34 -52 -12 55 124 67 161 55 169 -26 16 -95
9 -122 -13z m53 -91 c-11 -29 -23 -55 -26 -58 -7 -7 -33 31 -33 50 0 27 30 60
55 60 l25 0 -21 -52z"/>
<path d="M3940 3124 c-25 -37 -48 -71 -51 -76 -4 -6 -39 1 -92 18 -48 15 -89
26 -92 23 -3 -3 0 -20 6 -36 9 -27 18 -33 75 -49 35 -9 64 -19 64 -20 0 -2
-16 -24 -35 -50 -19 -25 -35 -53 -35 -62 0 -27 12 -62 20 -62 4 0 29 34 56 75
27 41 56 74 64 75 8 0 50 -11 93 -24 l79 -24 -7 26 c-10 40 -21 49 -76 62 -27
7 -51 16 -54 20 -3 5 11 29 30 55 34 44 35 48 23 81 -6 19 -14 34 -18 34 -3 0
-25 -30 -50 -66z"/>
<path d="M989 2942 c-31 -14 -67 -48 -81 -77 -15 -30 -53 -194 -46 -199 1 -1
71 -16 155 -32 l151 -30 16 81 c9 44 16 96 16 116 0 40 -30 91 -72 122 -28 21
-111 32 -139 19z m107 -83 c19 -11 37 -32 40 -46 6 -24 -2 -112 -11 -121 -3
-4 -58 4 -167 24 -32 6 -33 13 -13 82 24 79 84 103 151 61z"/>
<path d="M3831 2671 c-11 -7 -13 -28 -8 -97 7 -111 19 -146 65 -181 31 -23 47
-28 94 -28 109 0 158 69 158 222 l0 93 -147 0 c-82 0 -154 -4 -162 -9z m249
-119 c0 -32 -6 -65 -12 -74 -20 -24 -61 -48 -81 -48 -37 0 -85 31 -96 62 -12
34 -15 101 -4 111 3 4 48 7 100 7 l93 0 0 -58z"/>
<path d="M998 2434 c-104 -56 -57 -234 61 -234 55 0 89 20 110 64 12 23 21 49
21 57 0 25 -20 83 -35 103 -14 19 -15 19 -35 1 -17 -16 -18 -20 -5 -38 20 -29
19 -82 -2 -103 -16 -16 -18 -15 -24 8 -3 13 -9 54 -13 91 -7 60 -10 67 -29 67
-12 -1 -34 -7 -49 -16z m42 -83 c0 -16 3 -43 6 -60 7 -31 6 -32 -20 -20 -31
15 -43 51 -27 85 15 34 41 31 41 -5z"/>
<path d="M3846 2309 c-37 -29 -56 -71 -56 -121 0 -58 11 -74 39 -59 16 9 20
18 15 36 -9 37 3 73 31 91 14 9 28 14 31 12 2 -3 -4 -44 -14 -91 -11 -47 -17
-89 -14 -92 9 -9 57 -6 90 6 83 29 95 171 18 219 -44 26 -105 26 -140 -1z
m139 -118 c-7 -28 -30 -51 -53 -51 -8 0 -11 7 -8 18 2 9 8 33 11 52 11 51 16
56 37 30 13 -16 17 -32 13 -49z"/>
<path d="M975 2140 c-8 -13 21 -60 36 -60 8 0 8 -4 0 -14 -17 -20 -3 -69 18
-63 9 3 60 17 114 32 l99 28 -6 30 c-3 17 -8 32 -9 34 -2 1 -34 -6 -71 -17
-75 -21 -110 -16 -121 19 -7 22 -49 29 -60 11z"/>
<path d="M3746 2048 c-46 -79 -44 -142 5 -169 33 -17 67 -2 95 44 29 45 43 59
56 51 16 -10 7 -53 -17 -82 -24 -28 -24 -30 -6 -46 18 -16 20 -15 45 14 31 37
39 63 34 116 -2 29 -9 42 -29 53 -39 22 -72 8 -104 -44 -16 -25 -35 -45 -43
-45 -22 0 -8 67 19 96 18 19 20 26 9 39 -21 25 -38 17 -64 -27z"/>
<path d="M1180 1988 c-81 -43 -109 -70 -110 -106 0 -33 27 -93 57 -124 l26
-27 17 21 c16 20 15 22 -6 43 -31 31 -41 72 -22 92 14 13 19 8 46 -40 33 -59
62 -74 105 -58 27 10 37 29 37 68 0 33 -29 81 -53 89 -15 5 -17 8 -6 14 11 7
11 14 -1 38 l-15 29 -75 -39z m82 -75 c35 -31 15 -83 -26 -67 -17 6 -39 62
-30 75 8 14 36 10 56 -8z"/>
<path d="M3655 1851 c-14 -28 -13 -30 10 -45 13 -9 26 -16 29 -16 2 0 37 -19
77 -42 l72 -41 19 22 c10 13 18 26 18 30 0 4 -19 17 -42 29 -24 12 -71 37
-105 57 l-63 35 -15 -29z"/>
<path d="M3522 1790 c-47 -34 -82 -94 -82 -141 0 -36 45 -85 153 -168 l58 -44
21 21 c18 17 19 23 8 36 -10 14 -10 16 6 16 27 0 70 43 84 85 24 73 -53 156
-132 141 -43 -8 -87 -49 -95 -88 -6 -33 -18 -36 -33 -9 -18 34 -11 53 36 98
34 33 44 49 39 63 -8 26 -15 25 -63 -10z m170 -137 c25 -23 23 -59 -7 -88 -31
-32 -58 -32 -85 2 -49 63 32 140 92 86z"/>
<path d="M1275 1714 c-116 -41 -125 -48 -103 -71 16 -15 22 -14 95 9 43 14 80
24 81 22 2 -1 -14 -33 -36 -70 -35 -57 -39 -70 -30 -90 14 -30 15 -30 100 1
38 14 73 25 78 25 5 0 -1 -16 -13 -36 -64 -103 -66 -109 -46 -135 10 -13 19
-22 22 -19 2 3 31 52 65 109 50 84 59 108 51 123 -16 30 -34 31 -105 8 -71
-22 -86 -21 -62 7 8 10 26 39 40 65 l26 47 -22 20 c-12 12 -26 21 -32 20 -5 0
-54 -16 -109 -35z"/>
<path d="M3906 1721 c-26 -29 -13 -61 24 -61 24 0 31 5 36 27 5 19 2 30 -11
40 -24 17 -29 17 -49 -6z"/>
<path d="M3405 1530 c-18 -20 -17 -21 14 -58 17 -20 39 -51 48 -69 15 -29 15
-34 -1 -57 -27 -42 -55 -33 -116 34 l-55 60 -24 -20 -23 -20 27 -36 c15 -19
44 -53 64 -75 50 -52 94 -54 145 -5 20 18 36 40 36 49 0 9 7 14 18 11 9 -2 25
3 36 10 17 14 15 18 -39 82 -31 37 -63 77 -72 90 -19 29 -34 30 -58 4z"/>
<path d="M1590 1486 c0 -13 7 -29 15 -36 22 -18 19 -28 -21 -76 -35 -43 -36
-43 -60 -27 -23 15 -26 15 -42 0 -15 -15 -14 -18 8 -42 23 -24 23 -25 5 -45
-10 -11 -16 -22 -14 -23 43 -34 52 -36 69 -14 14 17 21 19 32 9 12 -10 19 -8
34 9 17 20 18 22 3 32 -15 9 -11 18 27 70 24 32 44 68 44 79 0 24 -61 88 -84
88 -10 0 -16 -9 -16 -24z"/>
<path d="M1759 1327 c-19 -28 -40 -64 -48 -80 -13 -27 -14 -27 -39 -11 -24 16
-26 16 -39 -2 -12 -17 -11 -21 12 -39 20 -16 22 -24 13 -33 -15 -15 -40 -16
-54 -2 -7 7 -17 5 -30 -5 -19 -15 -18 -16 9 -40 38 -34 90 -34 121 0 15 16 29
22 43 19 25 -7 39 22 22 43 -13 14 8 61 54 125 22 30 18 51 -12 67 -17 10 -23
4 -52 -42z"/>
<path d="M3134 1339 c-37 -11 -94 -60 -94 -82 0 -29 39 -27 70 5 23 22 37 29
62 26 54 -5 43 -26 -36 -65 -42 -21 -76 -43 -76 -51 0 -7 13 -27 29 -43 25
-24 37 -29 80 -29 42 0 56 5 85 31 104 91 13 248 -120 208z m106 -127 c0 -10
-7 -28 -16 -40 -17 -25 -65 -30 -83 -9 -8 11 -1 19 37 40 56 32 62 32 62 9z"/>
<path d="M1892 1275 c-41 -18 -76 -89 -66 -132 10 -41 33 -72 65 -89 32 -16
111 -19 139 -4 27 14 60 73 60 106 0 35 -30 87 -62 108 -35 23 -98 28 -136 11z
m106 -61 c55 -38 -2 -140 -65 -118 -36 12 -50 52 -34 93 18 41 60 52 99 25z"/>
<path d="M2933 1250 l-21 -9 24 -66 c13 -36 24 -71 24 -76 0 -6 -13 -23 -30
-39 -24 -23 -28 -32 -21 -56 l7 -29 34 33 c21 22 35 29 40 22 7 -11 60 -4 60
9 0 8 -33 112 -55 174 -17 48 -24 52 -62 37z"/>
<path d="M2158 1194 c-33 -17 -48 -43 -48 -82 0 -34 26 -60 92 -91 59 -28 75
-46 58 -66 -17 -21 -64 -19 -110 5 l-40 21 -12 -26 c-7 -16 -8 -29 -2 -34 14
-14 101 -41 130 -41 42 0 91 29 105 62 20 50 3 76 -76 119 -55 30 -70 43 -70
61 0 35 63 37 119 4 42 -24 42 -24 55 -4 17 27 -6 52 -67 72 -56 20 -99 20
-134 0z"/>
<path d="M2638 1165 c-10 -22 -9 -29 9 -46 28 -28 63 -11 63 30 0 46 -53 57
-72 16z"/>
</g>
</svg>
