<?xml version="1.0" standalone="no"?>
<!DOCTYPE svg PUBLIC "-//W3C//DTD SVG 20010904//EN"
 "http://www.w3.org/TR/2001/REC-SVG-20010904/DTD/svg10.dtd">
<svg version="1.0" xmlns="http://www.w3.org/2000/svg"
 width="300.000000pt" height="300.000000pt" viewBox="0 0 300.000000 300.000000"
 preserveAspectRatio="xMidYMid meet">
<metadata>
Created by potrace 1.10, written by Peter Selinger 2001-2011
</metadata>
<g transform="translate(0.000000,300.000000) scale(0.100000,-0.100000)"
fill="#000000" stroke="none">
<path d="M505 2974 c-28 -26 -28 -47 0 -24 16 13 39 50 32 50 -2 0 -16 -11
-32 -26z"/>
<path d="M1990 2990 c0 -5 9 -10 20 -10 11 0 20 -4 20 -9 0 -13 51 -24 62 -13
6 6 -1 12 -17 16 -14 4 -23 11 -20 16 4 6 -9 10 -29 10 -20 0 -36 -4 -36 -10z"/>
<path d="M403 2921 c-23 -13 -29 -21 -21 -29 8 -8 4 -13 -16 -18 -14 -3 -33
-4 -41 0 -8 3 -15 1 -15 -4 0 -12 37 -23 50 -15 5 3 10 1 10 -5 0 -6 10 -10
22 -8 18 2 22 10 23 38 0 26 4 35 17 35 10 0 18 5 19 10 1 16 -14 15 -48 -4z"/>
<path d="M2083 2923 c-9 -3 -7 -10 6 -24 13 -14 25 -18 49 -13 18 4 32 11 32
16 0 5 -4 6 -10 3 -5 -3 -20 1 -32 9 -24 17 -26 17 -45 9z"/>
<path d="M1936 2813 c-9 -22 -7 -43 4 -43 5 0 7 7 4 15 -4 10 0 15 11 15 10 0
15 -5 12 -13 -5 -15 43 -23 52 -9 3 5 23 7 44 4 30 -3 37 -8 32 -21 -5 -12 -3
-13 6 -4 18 18 3 43 -28 44 -40 2 -57 -2 -64 -13 -8 -13 -29 -1 -29 16 0 20
-38 27 -44 9z"/>
<path d="M2182 2795 c-10 -12 -10 -15 0 -15 8 0 6 -5 -5 -11 -9 -5 -21 -8 -26
-4 -10 6 -55 -45 -47 -53 8 -7 38 7 32 16 -2 4 5 9 16 9 11 1 29 9 39 19 11
10 25 14 36 10 13 -5 12 -1 -6 18 -14 15 -25 26 -25 26 -1 -1 -7 -7 -14 -15z"/>
<path d="M1890 2780 c-6 -12 -18 -19 -25 -16 -7 2 -19 -1 -25 -9 -9 -10 -4
-13 22 -11 30 1 33 -1 31 -26 -1 -16 2 -28 8 -28 5 0 9 5 9 11 0 5 5 7 11 4 6
-4 8 -13 5 -21 -8 -20 7 -17 34 6 24 21 46 27 35 10 -3 -5 -2 -10 4 -10 13 0
25 19 17 27 -3 4 -22 6 -42 5 -28 -1 -37 3 -41 18 -3 11 -10 20 -15 20 -6 0
-8 7 -5 15 10 23 -11 28 -23 5z"/>
<path d="M896 2771 c-12 -13 -14 -21 -7 -26 6 -3 11 1 11 9 0 16 20 18 31 2 4
-5 11 -7 17 -5 6 2 0 12 -13 21 -21 16 -24 16 -39 -1z"/>
<path d="M2962 2709 c-12 -19 -11 -20 10 -17 13 2 23 9 23 17 0 23 -19 23 -33
0z"/>
<path d="M2025 2698 c-11 -16 -12 -24 -4 -27 7 -2 16 4 21 13 6 11 16 15 29
11 14 -5 17 -3 13 9 -9 23 -40 19 -59 -6z"/>
<path d="M2699 2664 c-6 -8 -15 -14 -20 -14 -5 0 -21 -13 -36 -29 -16 -16 -44
-31 -65 -35 -53 -10 -55 -23 -3 -20 64 4 78 10 93 42 13 30 20 32 90 33 23 0
55 7 70 15 l27 15 -45 -1 c-25 -1 -57 1 -72 3 -16 2 -33 -2 -39 -9z"/>
<path d="M2938 2656 c-24 -18 -23 -23 7 -23 14 0 23 2 21 5 -3 3 -1 11 5 19
15 18 -9 17 -33 -1z"/>
<path d="M2074 2625 c-4 -8 -12 -15 -20 -15 -8 0 -14 -7 -14 -16 0 -10 6 -14
15 -10 22 8 18 -2 -6 -15 -14 -7 -19 -7 -15 0 4 5 -2 15 -13 20 -26 14 -34 -7
-13 -31 14 -16 13 -18 -1 -18 -10 0 -17 5 -17 11 0 6 -8 9 -17 7 -10 -2 -24 3
-31 12 -10 11 -15 12 -18 3 -3 -7 -12 -13 -20 -13 -9 0 -12 -4 -9 -10 3 -5 -1
-10 -9 -10 -9 0 -16 -4 -16 -10 0 -5 6 -10 13 -10 8 0 7 -4 -3 -10 -8 -5 -10
-10 -4 -10 6 0 17 7 24 15 9 11 17 12 30 5 13 -7 27 -6 44 2 22 9 29 8 46 -7
11 -10 21 -16 23 -14 1 2 9 17 17 34 17 33 42 42 74 27 38 -18 66 -21 66 -7 0
27 20 26 44 -2 l24 -28 22 28 c12 15 27 27 35 27 7 0 15 8 18 19 3 13 12 17
33 16 16 -2 35 -3 42 -4 6 -1 12 -6 12 -12 0 -6 9 -24 20 -39 l21 -29 -21 -11
c-17 -9 -19 -14 -9 -26 8 -10 15 -12 23 -4 5 5 28 10 51 10 29 0 46 7 64 25
13 14 18 25 13 25 -6 0 -14 -4 -17 -10 -5 -8 -34 -8 -77 -1 -3 0 -19 21 -35
46 -40 64 -88 71 -157 22 -25 -17 -42 -21 -105 -19 -122 3 -123 3 -118 29 5
26 -1 31 -9 8z"/>
<path d="M2840 2629 c-18 -7 -21 -12 -11 -18 7 -5 12 -12 12 -17 -1 -5 10 -9
24 -9 14 -1 25 2 25 6 0 14 34 19 42 7 6 -10 8 -9 8 3 0 23 -45 30 -66 10 -15
-15 -16 -14 -11 7 3 12 4 22 4 21 -1 0 -13 -5 -27 -10z"/>
<path d="M2718 2559 c-10 -5 -18 -14 -18 -19 0 -17 26 -11 45 10 20 22 4 28
-27 9z"/>
<path d="M2943 2525 c-3 -9 -3 -19 1 -22 8 -9 37 18 30 28 -8 14 -24 11 -31
-6z"/>
<path d="M1330 2510 c0 -5 14 -10 30 -10 17 0 30 5 30 10 0 6 -13 10 -30 10
-16 0 -30 -4 -30 -10z"/>
<path d="M1680 2511 c-14 -4 -24 -13 -22 -19 3 -16 -21 -15 -37 1 -10 10 -11
8 -5 -8 12 -34 15 -36 29 -25 11 9 12 6 8 -12 -6 -23 -6 -23 13 -3 26 27 56
75 47 74 -5 -1 -19 -4 -33 -8z"/>
<path d="M2378 2480 c2 -16 10 -31 18 -34 10 -4 13 1 10 17 -3 12 -5 25 -5 28
-1 4 -7 9 -14 12 -10 4 -12 -3 -9 -23z"/>
<path d="M648 2487 c-7 -8 -19 -12 -27 -9 -10 3 -11 0 -2 -16 12 -22 7 -57
-10 -78 -9 -11 -9 -14 0 -14 6 0 15 8 18 18 4 9 12 20 18 24 7 4 10 19 7 33
-2 14 1 32 8 40 15 19 6 20 -12 2z"/>
<path d="M1420 2495 c0 -5 51 -37 64 -40 6 -1 19 -5 29 -10 33 -14 29 3 -5 20
-34 17 -88 36 -88 30z"/>
<path d="M1559 2484 c-9 -11 -9 -18 -1 -26 9 -9 12 -9 12 -1 0 6 6 13 14 15
12 2 12 5 1 15 -10 10 -16 9 -26 -3z"/>
<path d="M719 2470 c-5 -28 28 -103 42 -94 12 7 11 34 -1 34 -5 0 -10 11 -10
25 0 14 -4 25 -9 25 -5 0 -11 8 -14 18 -3 12 -5 10 -8 -8z"/>
<path d="M1177 2475 c-11 -7 -25 -11 -33 -8 -8 3 -16 -2 -20 -10 -3 -9 -12
-13 -21 -10 -12 5 -14 3 -8 -7 6 -10 4 -12 -9 -7 -10 4 -20 7 -22 7 -3 0 -2 4
1 10 3 5 -4 11 -17 14 -38 6 -78 4 -78 -4 0 -5 -3 -15 -6 -23 -3 -10 3 -16 20
-19 16 -3 23 -1 20 7 -6 16 24 41 35 29 5 -5 11 -18 13 -29 4 -26 51 -32 84
-10 14 9 33 13 45 10 11 -4 19 -3 18 2 -1 4 1 16 6 26 11 25 -6 39 -28 22z"/>
<path d="M806 2443 c11 -11 13 -18 5 -21 -6 -2 -11 -15 -11 -28 0 -24 1 -24
29 -9 33 17 70 16 88 -2 7 -6 22 -9 33 -6 11 3 26 0 34 -6 11 -9 16 -9 21 0
10 15 -13 29 -47 29 -18 0 -28 5 -28 15 0 11 -7 14 -25 9 -16 -4 -39 1 -65 15
-49 25 -57 26 -34 4z"/>
<path d="M2745 2431 c4 -32 -3 -36 -62 -32 -11 1 -24 -3 -28 -8 -3 -6 1 -11 9
-11 9 0 16 -5 16 -11 0 -9 4 -9 14 0 7 6 24 12 38 13 13 1 25 7 26 13 6 48 5
59 -5 62 -8 3 -10 -6 -8 -26z"/>
<path d="M1232 2420 c19 -30 36 -32 30 -4 -3 15 -11 24 -23 24 -17 0 -17 -3
-7 -20z"/>
<path d="M1587 2423 c-4 -3 -7 -16 -6 -27 0 -12 3 -15 6 -8 9 23 33 13 33 -14
0 -21 2 -23 13 -12 22 21 27 56 9 63 -8 3 -20 1 -26 -5 -13 -13 -29 -13 -21 0
7 11 2 13 -8 3z"/>
<path d="M429 2415 c-1 -3 -2 -8 -3 -12 -1 -5 -5 -13 -9 -19 -10 -16 33 -26
50 -12 11 9 10 14 -6 29 -20 19 -30 23 -32 14z"/>
<path d="M1450 2385 c10 -12 16 -13 26 -4 10 8 14 8 14 1 0 -6 7 -9 15 -6 25
10 6 24 -32 24 -30 0 -34 -2 -23 -15z"/>
<path d="M1209 2368 c-1 -2 -2 -15 -3 -30 -2 -20 3 -27 21 -31 27 -5 28 -1 8
19 -8 8 -12 21 -9 29 5 12 -12 23 -17 13z"/>
<path d="M492 2329 c-6 -9 -8 -20 -5 -23 10 -9 43 -7 43 3 0 5 9 11 20 14 11
3 20 10 20 16 0 9 -5 9 -20 1 -11 -6 -20 -7 -20 -2 0 15 -27 9 -38 -9z"/>
<path d="M2422 2316 c-18 -12 -35 -31 -38 -43 -4 -13 -12 -23 -19 -23 -19 0
-26 -27 -9 -34 29 -11 35 -5 48 44 0 3 11 18 23 33 21 28 22 28 41 9 10 -10
16 -24 14 -30 -2 -7 0 -12 5 -12 4 0 30 -7 57 -15 47 -14 49 -14 33 3 -10 10
-14 22 -10 26 4 4 0 4 -8 1 -10 -4 -34 7 -60 28 l-45 34 -32 -21z"/>
<path d="M1504 2305 c-3 -14 -12 -25 -20 -25 -8 0 -14 -8 -15 -17 -3 -55 1
-95 10 -107 6 -7 8 -16 5 -19 -4 -4 1 -17 9 -31 19 -28 27 -15 -91 -140 l-54
-56 -9 -108 c-5 -59 -12 -118 -15 -132 -3 -14 -14 -79 -24 -145 -11 -66 -22
-133 -26 -148 -6 -26 -5 -28 20 -21 28 7 31 -1 19 -45 -6 -23 -7 -23 -14 -5
-7 16 -8 17 -8 2 -1 -10 -5 -18 -11 -18 -5 0 -6 7 -3 17 4 11 3 14 -5 9 -20
-12 5 -96 28 -96 5 0 6 9 3 20 -4 14 -1 19 8 15 11 -4 15 8 16 51 2 33 17 94
38 153 38 106 47 184 20 161 -9 -8 -13 -21 -9 -32 8 -28 -34 -128 -55 -128
-14 1 -14 2 2 11 12 7 15 14 9 22 -6 8 -5 35 4 77 7 36 14 75 14 88 0 15 4 21
12 16 7 -5 8 -3 3 5 -4 7 -4 60 0 119 7 105 16 116 29 33 4 -27 2 -48 -5 -57
-7 -9 -7 -14 -1 -14 5 0 13 -11 16 -24 3 -13 16 -26 28 -29 20 -5 21 -4 7 6
-9 7 -19 26 -22 42 -6 31 10 148 24 176 5 10 3 21 -3 27 -17 17 -1 27 18 12
13 -12 17 -11 25 1 5 8 9 22 9 31 0 9 5 20 10 23 6 3 10 15 10 26 0 11 4 18 9
15 5 -4 7 3 4 14 -3 11 1 28 8 38 13 15 12 16 -4 3 -9 -8 -20 -11 -23 -8 -8 7
7 159 15 155 3 -2 20 -10 36 -17 17 -7 40 -18 52 -23 11 -6 27 -7 34 -3 9 6
10 3 4 -11 -4 -10 -7 -32 -6 -49 1 -20 -5 -35 -20 -46 -19 -14 -19 -17 -5 -22
30 -12 66 115 47 163 -6 17 -10 19 -10 8 -1 -9 -6 -20 -11 -23 -7 -4 -9 2 -5
17 4 17 1 29 -12 39 -16 13 -17 13 -4 -4 8 -9 12 -20 9 -23 -10 -9 -57 15 -70
36 -18 28 -46 25 -54 -5z"/>
<path d="M397 2313 c-13 -12 -7 -43 7 -43 10 0 13 8 11 21 -5 26 -9 31 -18 22z"/>
<path d="M680 2309 c0 -6 -8 -8 -17 -5 -26 7 -64 -16 -54 -32 7 -11 16 -11 52
1 46 16 59 31 34 40 -8 4 -15 2 -15 -4z"/>
<path d="M1150 2292 c0 -18 34 -49 48 -44 7 2 12 -3 12 -11 0 -9 -5 -17 -12
-19 -8 -3 -6 -6 4 -10 24 -10 29 27 7 53 -10 12 -19 18 -19 14 0 -4 -9 0 -20
10 -11 10 -20 13 -20 7z"/>
<path d="M817 2243 c6 -38 44 -56 72 -36 19 12 21 12 21 -1 0 -18 16 -21 25
-6 4 6 10 8 14 5 5 -2 6 8 3 23 -3 15 -7 21 -9 15 -6 -18 -23 -16 -23 2 0 22
-30 6 -41 -22 l-9 -23 -20 20 c-11 11 -19 25 -17 31 1 6 -3 13 -9 16 -6 2 -9
-7 -7 -24z"/>
<path d="M733 2223 c-10 -3 -10 -7 0 -17 14 -16 37 -10 37 10 0 14 -14 17 -37
7z"/>
<path d="M2293 2190 c-16 -42 0 -46 19 -4 11 23 12 34 4 34 -6 0 -17 -13 -23
-30z"/>
<path d="M1523 2186 c0 -17 34 -28 43 -14 7 11 5 14 -22 22 -14 4 -21 2 -21
-8z"/>
<path d="M720 2179 c0 -5 -4 -8 -9 -5 -5 3 -14 -1 -21 -9 -7 -8 -27 -15 -44
-16 -67 -1 -71 -17 -4 -17 36 -1 78 -4 92 -8 15 -3 26 -2 26 4 0 5 -9 12 -19
15 -14 3 -18 11 -14 26 3 12 3 21 -1 21 -3 0 -6 -5 -6 -11z"/>
<path d="M299 2155 c-3 -2 -19 -5 -37 -7 -18 -1 -32 -5 -32 -9 0 -13 50 -16
61 -3 6 7 20 15 32 17 21 4 21 4 1 6 -11 0 -23 -1 -25 -4z"/>
<path d="M355 2150 c-3 -5 -1 -30 5 -50 1 -3 5 5 10 18 6 13 15 22 22 21 26
-3 39 1 33 11 -7 11 -64 10 -70 0z"/>
<path d="M1068 2149 c-7 -5 -11 -9 -8 -10 3 0 14 -2 24 -4 11 -2 26 0 34 4 11
6 8 9 -11 13 -14 3 -32 1 -39 -3z"/>
<path d="M475 2130 c7 -12 74 -10 81 2 3 4 -16 8 -41 8 -29 0 -44 -4 -40 -10z"/>
<path d="M2320 2111 l-25 -20 40 9 c22 5 59 10 83 10 63 0 51 15 -16 18 -44 2
-63 -2 -82 -17z"/>
<path d="M1083 2079 c-13 -5 -23 -11 -23 -14 0 -4 5 -3 11 1 6 3 34 6 62 5 27
0 48 1 46 3 -11 9 -77 13 -96 5z"/>
<path d="M1629 2075 c0 -5 -2 -21 -4 -35 -1 -14 2 -33 7 -43 9 -17 11 -17 27
-3 25 23 34 20 27 -9 -4 -17 -1 -31 9 -41 13 -14 15 -14 15 1 0 9 5 13 10 10
6 -3 10 3 10 14 0 12 -7 21 -15 21 -8 0 -15 4 -15 9 0 14 -70 88 -71 76z"/>
<path d="M2240 2028 c-36 -17 -67 -36 -68 -40 -2 -5 -15 -22 -29 -38 -35 -42
-14 -38 27 5 19 19 38 35 43 35 5 0 20 9 34 19 13 11 30 18 38 15 7 -3 16 -1
20 5 10 16 47 13 70 -7 29 -25 51 -92 34 -103 -7 -4 -17 -5 -21 -3 -4 3 -8 1
-8 -5 0 -13 69 -2 95 15 23 17 2 19 -27 3 -19 -10 -20 -9 -16 15 3 14 1 26 -3
26 -5 0 -9 8 -9 18 0 27 -42 62 -81 68 -25 4 -51 -4 -99 -28z"/>
<path d="M364 1992 c-7 -4 13 -7 45 -8 39 -1 48 1 31 7 -34 10 -63 10 -76 1z"/>
<path d="M2304 1988 c-4 -7 -3 -8 4 -4 7 4 12 2 12 -3 0 -6 3 -10 8 -10 4 1 9
0 12 -1 17 -6 40 -7 40 -2 0 7 -48 32 -61 32 -4 0 -11 -5 -15 -12z"/>
<path d="M1751 1971 c-10 -7 -9 -11 8 -23 24 -17 41 -58 41 -97 0 -16 7 -34
15 -41 9 -7 15 -29 15 -54 0 -23 5 -47 10 -52 24 -24 33 -354 10 -354 -3 0 -5
-13 -2 -30 3 -21 0 -32 -12 -36 -9 -3 -16 -15 -16 -25 0 -10 -4 -19 -9 -19 -4
0 -8 25 -7 55 0 36 5 55 12 55 8 0 11 11 9 28 -2 15 -7 53 -10 84 -4 32 -11
61 -17 64 -7 4 -8 -6 -4 -32 11 -62 9 -129 -3 -152 -14 -25 -15 -112 -1 -112
5 0 7 -7 4 -15 -4 -10 0 -15 10 -15 22 0 56 58 56 96 0 16 6 36 13 42 20 21
22 252 2 356 -28 154 -77 287 -104 286 -3 0 -12 -4 -20 -9z"/>
<path d="M1592 1922 c-16 -26 -33 -58 -36 -70 -8 -24 -25 -30 -27 -9 -3 27 -5
33 -17 55 -8 13 -16 21 -19 18 -4 -3 -12 -1 -20 5 -9 9 -13 8 -13 0 0 -6 7
-14 15 -18 16 -6 61 -82 57 -95 -1 -5 1 -8 6 -7 4 0 20 27 36 59 16 33 33 57
37 54 9 -5 25 44 16 52 -2 3 -18 -17 -35 -44z"/>
<path d="M2533 1958 c-34 -11 -41 -22 -23 -33 6 -3 10 -1 10 4 0 6 6 11 14 11
7 0 19 7 26 15 7 8 11 15 9 14 -2 -1 -19 -6 -36 -11z"/>
<path d="M2623 1957 c-3 -5 -13 -7 -23 -4 -13 3 -17 0 -13 -9 6 -17 18 -18 35
-1 18 16 96 21 114 7 9 -8 14 -9 14 -2 0 6 -9 13 -19 17 -27 8 -101 3 -108 -8z"/>
<path d="M2255 1900 c-3 -5 -17 -10 -30 -10 -17 0 -23 -4 -19 -15 5 -13 10
-13 42 0 22 10 39 12 45 6 5 -5 25 -7 43 -4 22 4 34 2 34 -6 0 -6 -11 -11 -24
-11 -14 0 -27 -3 -29 -7 -7 -11 185 -10 201 0 7 5 26 6 42 2 20 -4 30 -3 30 5
0 7 8 6 22 -4 16 -11 26 -12 41 -5 15 9 26 6 48 -10 15 -12 33 -21 38 -21 5 0
22 -5 38 -11 39 -16 65 -16 82 -1 7 7 19 11 26 8 8 -3 16 2 19 10 5 12 0 12
-31 -1 -41 -17 -79 -19 -88 -5 -3 6 -14 10 -24 10 -10 0 -29 13 -44 29 -23 27
-30 29 -58 21 -20 -6 -38 -6 -50 0 -23 13 -96 13 -104 0 -3 -5 -11 -10 -16
-10 -6 0 -7 5 -3 11 4 7 -2 9 -17 7 -13 -2 -23 -8 -22 -13 2 -16 -54 -10 -72
8 -9 10 -29 16 -43 15 -15 -1 -37 2 -49 6 -12 4 -24 2 -28 -4z"/>
<path d="M2169 1865 c-1 -3 -2 -10 -3 -17 -1 -13 -51 -30 -60 -20 -3 3 -6 0
-6 -7 0 -18 60 -4 82 19 14 15 15 19 3 24 -8 3 -16 3 -16 1z"/>
<path d="M2235 1830 c-40 -16 -45 -19 -23 -20 15 0 42 9 60 20 40 24 29 24
-37 0z"/>
<path d="M1204 1809 c22 -5 43 -6 48 -1 4 4 -13 9 -39 9 l-48 2 39 -10z"/>
<path d="M2652 1803 c-6 -10 -17 -14 -31 -10 -14 3 -26 -2 -37 -16 -10 -13
-18 -17 -20 -11 -3 8 -16 9 -40 4 -74 -17 -44 -22 86 -14 74 4 143 7 153 6 9
0 17 3 17 9 0 5 -18 9 -40 9 -26 0 -47 7 -60 20 -17 17 -20 18 -28 3z"/>
<path d="M968 1783 c-44 -7 -33 -20 17 -21 35 -1 43 2 38 13 -3 8 -10 14 -17
14 -6 -1 -23 -4 -38 -6z"/>
<path d="M530 1765 c-11 -13 -8 -15 14 -15 16 0 26 5 26 15 0 8 -6 15 -14 15
-7 0 -19 -7 -26 -15z"/>
<path d="M1700 1769 c1 -15 23 -49 34 -49 10 0 7 34 -5 50 -9 12 -10 11 -5 -5
6 -20 6 -20 -9 -1 -11 14 -15 16 -15 5z"/>
<path d="M1097 1748 c5 -10 62 -9 88 1 12 5 -1 7 -37 7 -31 -1 -54 -4 -51 -8z"/>
<path d="M2282 1749 c15 -9 76 -4 87 7 2 2 -20 4 -50 4 -41 -1 -50 -3 -37 -11z"/>
<path d="M2849 1744 c-6 -7 5 -10 38 -10 25 1 48 6 50 12 5 15 -75 13 -88 -2z"/>
<path d="M1540 1682 c0 -5 14 -7 30 -4 18 3 30 0 30 -7 0 -6 5 -11 11 -11 5 0
8 4 4 9 -3 5 3 12 12 14 10 3 -6 5 -34 6 -29 0 -53 -3 -53 -7z"/>
<path d="M1578 1632 c-14 -6 -17 -21 -15 -100 1 -50 -1 -92 -5 -92 -5 0 -8 -5
-8 -11 0 -8 5 -8 15 1 13 10 15 9 15 -10 0 -16 -4 -20 -15 -16 -11 4 -15 -1
-15 -19 0 -18 5 -25 20 -25 18 0 20 7 20 78 1 42 2 105 3 140 1 34 2 62 2 61
0 0 -8 -3 -17 -7z"/>
<path d="M1465 1610 c-4 -11 -1 -63 6 -116 9 -77 9 -103 -1 -135 -7 -21 -10
-42 -7 -46 4 -3 2 -12 -4 -20 -9 -9 -8 -13 0 -13 6 0 16 -11 21 -25 5 -14 17
-25 27 -24 11 0 13 3 6 6 -7 2 -13 11 -13 18 0 7 -4 15 -9 17 -5 2 -12 20 -16
41 -7 33 -5 37 14 37 21 0 22 2 16 103 -6 115 -14 165 -25 172 -5 3 -11 -4
-15 -15z"/>
<path d="M1760 1589 c0 -6 -7 -9 -15 -5 -19 7 -19 1 -1 -27 8 -12 16 -46 17
-76 3 -50 0 -56 -30 -83 -22 -20 -30 -33 -23 -40 6 -6 20 4 41 29 31 36 32 42
27 96 -4 38 -2 57 5 57 8 0 7 5 -1 15 -7 8 -10 22 -6 30 3 8 1 15 -4 15 -6 0
-10 -5 -10 -11z"/>
<path d="M2811 1590 c-47 -11 -80 -30 -86 -51 -3 -9 -19 -22 -34 -29 -25 -10
-34 -9 -57 6 -20 14 -29 15 -32 6 -2 -7 -21 -12 -44 -12 -59 0 -145 -28 -194
-64 -49 -36 -54 -47 -20 -44 14 1 22 6 20 10 -3 4 0 9 5 9 6 1 17 2 24 3 6 1
11 8 9 15 -1 8 6 12 20 11 53 -5 78 1 98 22 20 22 22 22 52 5 31 -18 58 -10
58 16 0 6 -6 3 -13 -8 -8 -10 -19 -15 -25 -11 -17 10 -15 29 3 23 8 -4 17 -2
20 3 3 5 12 7 20 4 8 -4 13 -10 10 -14 -6 -10 24 -35 32 -26 4 4 1 11 -7 16
-12 8 -11 10 6 10 11 0 29 -7 40 -15 10 -8 24 -14 29 -14 6 0 2 4 -9 10 -15 9
-16 13 -5 20 8 4 14 14 14 21 0 7 5 13 10 13 6 0 16 4 24 9 11 7 12 6 6 -5 -5
-8 1 -5 13 5 27 23 28 27 5 19 -10 -3 -15 -2 -11 2 12 13 68 14 61 1 -3 -6 0
-5 8 2 18 16 30 15 23 -2 -3 -9 3 -17 15 -21 12 -3 19 -10 16 -14 -2 -5 8 -8
23 -8 15 0 35 -3 45 -7 12 -6 17 -4 17 7 0 8 -8 17 -17 21 -10 3 -43 19 -73
36 -30 16 -57 29 -60 29 -3 -1 -20 -5 -39 -9z"/>
<path d="M1691 1527 c-7 -14 -11 -31 -8 -39 3 -8 9 -2 16 16 15 38 9 55 -8 23z"/>
<path d="M1407 1523 c-4 -3 -7 -25 -7 -48 0 -22 -5 -46 -11 -52 -6 -6 -8 -21
-4 -33 6 -18 9 -20 16 -9 5 8 9 9 9 3 0 -7 8 -15 17 -18 13 -5 11 0 -7 19 -20
21 -22 29 -13 44 7 10 12 37 11 60 0 43 -1 45 -11 34z"/>
<path d="M2686 1414 c-4 -10 -14 -14 -24 -12 -11 3 -19 0 -19 -8 0 -19 10 -17
41 7 14 11 30 18 35 14 5 -3 12 -2 15 3 2 4 -6 9 -19 10 -13 1 -26 -5 -29 -14z"/>
<path d="M2268 1382 c-16 -9 -28 -20 -28 -24 0 -5 -9 -8 -21 -8 -29 0 -59 -18
-59 -36 0 -8 -4 -13 -9 -10 -5 3 -25 -7 -45 -22 -19 -15 -46 -35 -58 -44 -17
-13 -19 -17 -7 -18 8 0 25 9 36 20 12 10 33 22 46 25 14 4 28 13 31 21 3 8 12
14 21 14 8 0 15 5 15 10 0 6 9 10 21 10 11 0 17 5 14 10 -3 6 3 10 15 10 13 0
19 -4 14 -12 -4 -7 -3 -8 5 -4 6 4 8 12 5 18 -5 7 0 9 14 6 16 -4 19 -2 15 10
-5 12 -2 14 11 9 14 -6 17 -3 12 10 -5 15 -4 15 9 -1 12 -16 15 -17 15 -4 0
14 -20 28 -38 28 -4 0 -19 -8 -34 -18z"/>
<path d="M2695 1319 c-22 -14 -31 -15 -37 -6 -6 9 -8 9 -8 0 0 -7 -7 -13 -15
-13 -8 0 -15 -4 -15 -9 0 -13 80 5 98 23 23 23 11 26 -23 5z"/>
<path d="M2910 1326 c-25 -11 -42 -27 -35 -34 2 -3 12 3 21 13 25 25 104 0 87
-28 -3 -6 -1 -7 6 -3 14 9 8 20 -27 44 -22 16 -32 17 -52 8z"/>
<path d="M1740 1304 c0 -12 -7 -15 -25 -12 -14 3 -28 1 -31 -3 -3 -5 9 -9 25
-9 20 0 31 -5 31 -14 0 -8 5 -18 10 -21 6 -4 10 10 10 34 0 23 -4 41 -10 41
-5 0 -10 -7 -10 -16z"/>
<path d="M13 1283 c-19 -7 -16 -20 5 -20 21 1 72 -23 72 -35 0 -4 8 -8 18 -8
14 0 13 4 -7 19 -41 32 -75 49 -88 44z"/>
<path d="M200 1216 c-9 -12 -8 -15 9 -13 12 1 21 4 21 8 0 8 110 -14 130 -26
11 -7 54 4 47 12 -3 3 -27 7 -54 10 -26 2 -52 9 -57 14 -15 14 -82 11 -96 -5z"/>
<path d="M1994 1205 c-4 -8 -10 -13 -14 -10 -4 3 -11 -2 -14 -11 -3 -9 -12
-14 -19 -11 -15 6 -84 -50 -74 -60 4 -4 16 -7 28 -8 13 -1 16 2 9 9 -7 7 4 19
35 38 25 15 50 28 56 28 5 0 7 5 4 10 -3 6 1 10 10 10 9 0 13 5 10 10 -9 15
-25 12 -31 -5z"/>
<path d="M521 1196 c-8 -9 -20 -16 -27 -16 -8 0 -14 -7 -14 -15 0 -19 10 -19
24 0 6 9 29 18 50 21 36 4 38 3 25 -13 -10 -12 -10 -15 -1 -9 7 4 20 2 28 -5
22 -18 25 -7 4 19 -24 29 -72 39 -89 18z"/>
<path d="M1684 1202 c-12 -8 -7 -72 6 -72 4 0 7 8 6 18 -1 11 5 16 17 14 25
-4 21 15 -5 22 -19 5 -21 8 -8 16 8 5 11 10 5 10 -5 0 -15 -4 -21 -8z"/>
<path d="M1780 1175 c0 -8 -7 -15 -15 -15 -10 0 -15 -10 -15 -31 0 -28 2 -30
16 -18 10 8 12 15 5 17 -6 2 -11 8 -11 14 0 5 6 8 13 5 6 -2 19 -1 28 4 14 7
18 -1 28 -48 15 -74 14 -89 -4 -107 -13 -13 -14 -25 -5 -73 29 -165 29 -165
109 -239 74 -69 74 -69 133 -69 37 0 59 4 63 13 2 6 -2 12 -10 12 -18 0 -13
52 6 59 7 2 22 12 33 23 20 19 34 21 100 18 27 -1 36 2 31 10 -4 6 -16 10 -26
7 -11 -3 -23 1 -27 10 -8 13 -11 13 -25 -2 -22 -22 -23 1 -1 35 l16 25 -20
-23 c-14 -15 -22 -18 -26 -10 -3 7 -3 1 0 -13 5 -24 3 -26 -23 -22 -22 4 -25
2 -13 -6 10 -7 11 -11 3 -11 -7 0 -13 -7 -13 -15 0 -10 -7 -15 -17 -13 -13 2
-19 -5 -21 -24 -2 -16 -7 -28 -12 -28 -5 0 -7 7 -4 15 5 12 1 13 -26 4 -23 -9
-28 -14 -18 -20 7 -5 21 -9 31 -9 9 0 17 -4 17 -8 0 -5 -17 -8 -37 -7 -30 2
-39 7 -44 26 -4 13 -7 21 -8 17 -1 -4 -13 4 -27 17 -15 14 -32 25 -38 25 -26
1 -81 129 -62 147 3 3 -2 12 -12 19 -14 10 -15 15 -4 25 6 7 12 20 11 29 0 10
-3 9 -8 -5 -7 -17 -8 -17 -15 8 -4 19 -2 33 9 43 8 9 16 23 16 32 1 9 3 32 5
50 2 20 0 31 -6 27 -6 -3 -7 1 -4 9 4 11 0 16 -12 16 -9 0 -14 3 -11 6 9 10
-12 46 -24 39 -5 -4 -9 1 -9 9 0 9 -4 16 -10 16 -5 0 -10 -7 -10 -15z"/>
<path d="M1562 1148 c-7 -7 -12 -17 -12 -22 0 -6 5 -4 10 4 8 12 10 11 10 -7
0 -13 -6 -23 -12 -23 -9 0 -8 -3 2 -9 20 -13 27 -6 28 28 1 35 -9 46 -26 29z"/>
<path d="M2783 1146 c-6 -8 -9 -18 -5 -22 4 -5 -2 -2 -13 7 -23 18 -61 19 -58
2 2 -7 -13 -20 -32 -29 -19 -9 -35 -21 -35 -26 0 -5 -9 -7 -20 -3 -11 3 -28 2
-37 -4 -14 -8 -15 -11 -3 -11 8 -1 25 -3 37 -6 15 -2 27 3 35 16 7 11 17 20
21 20 5 0 23 11 42 26 18 14 36 21 39 15 3 -5 0 -12 -6 -14 -7 -3 2 -6 20 -6
18 -1 43 -6 54 -12 13 -7 18 -7 14 -1 -4 6 2 15 11 21 17 10 16 11 -2 9 -41
-3 -54 2 -49 17 7 18 3 19 -13 1z"/>
<path d="M2944 1144 c3 -8 0 -14 -6 -14 -6 0 -8 -3 -5 -6 4 -4 13 -1 21 5 11
10 15 8 19 -6 4 -15 5 -14 6 3 1 14 -6 24 -20 27 -15 4 -19 2 -15 -9z"/>
<path d="M2418 1125 c17 -8 32 -19 32 -25 0 -6 5 -8 11 -4 8 4 7 9 -2 15 -8 5
-9 9 -4 10 17 1 -29 18 -50 18 -14 0 -10 -4 13 -14z"/>
<path d="M2260 1115 c0 -7 5 -17 10 -20 6 -3 10 -1 10 4 0 6 5 11 11 11 5 0 8
-4 5 -9 -3 -5 1 -14 9 -21 18 -15 20 0 3 22 -19 22 -48 31 -48 13z"/>
<path d="M683 1108 c2 -7 10 -12 16 -10 6 1 11 -3 11 -9 0 -5 4 -8 10 -4 15 9
0 35 -22 35 -11 0 -18 -5 -15 -12z"/>
<path d="M1794 1082 c1 -43 9 -54 20 -26 3 8 0 27 -8 42 -13 25 -14 25 -12
-16z"/>
<path d="M2857 1093 c3 -8 18 -17 34 -20 32 -6 36 -15 15 -32 -8 -7 -23 -8
-42 -2 -61 19 -144 34 -151 28 -3 -4 -1 -7 6 -7 7 0 10 -4 6 -9 -3 -5 11 -15
30 -21 19 -6 32 -16 29 -22 -3 -5 8 -2 25 6 17 9 31 12 31 6 0 -5 -4 -10 -10
-10 -5 0 -10 -5 -10 -10 0 -6 15 -4 36 5 20 8 44 15 54 15 9 0 25 9 35 20 10
11 28 20 39 20 19 1 20 1 3 11 -9 6 -26 7 -37 4 -12 -4 -20 -2 -20 5 0 6 -5 8
-10 5 -13 -8 -52 4 -46 14 3 4 -1 8 -8 8 -8 0 -12 -7 -9 -14z"/>
<path d="M1597 1075 c-4 -9 -7 -28 -7 -41 0 -14 -5 -34 -10 -44 -6 -11 -6 -21
-1 -24 5 -3 12 5 15 19 4 14 13 25 21 25 18 0 19 27 1 59 -11 20 -14 21 -19 6z"/>
<path d="M1893 1074 c0 -7 8 -14 18 -14 10 0 23 -8 28 -17 6 -10 10 -13 11 -8
0 15 -13 31 -36 43 -16 9 -21 8 -21 -4z"/>
<path d="M806 1073 c-13 -13 -5 -18 26 -16 18 1 42 2 52 2 11 1 17 4 13 7 -9
9 -83 15 -91 7z"/>
<path d="M1724 1055 c24 -26 46 -33 46 -14 0 6 -7 8 -16 5 -9 -4 -13 -2 -8 5
7 12 -12 29 -33 29 -7 0 -2 -11 11 -25z"/>
<path d="M2549 1046 c6 -7 8 -16 5 -19 -4 -3 1 -13 10 -22 14 -14 18 -11 15
11 0 4 5 10 11 14 8 5 0 12 -20 19 -27 9 -30 8 -21 -3z"/>
<path d="M1023 1038 c-9 -10 0 -13 43 -15 30 -1 54 2 54 7 0 6 -10 10 -22 10
-13 0 -32 3 -44 6 -11 3 -25 -1 -31 -8z"/>
<path d="M2662 1030 c-12 -11 -33 -20 -47 -20 -14 0 -25 -4 -25 -10 0 -5 5
-10 11 -10 5 0 7 -5 3 -11 -7 -11 12 -29 31 -29 6 0 4 4 -4 9 -8 5 -11 16 -8
26 4 9 11 13 17 10 5 -3 10 -1 10 6 0 8 3 9 13 0 11 -8 16 -5 25 15 7 14 12
27 12 29 0 11 -18 4 -38 -15z"/>
<path d="M1322 1005 c12 -14 23 -32 24 -41 1 -9 6 -19 10 -22 4 -4 4 8 0 27
-3 18 -6 40 -6 47 0 8 -10 14 -25 14 l-25 0 22 -25z"/>
<path d="M2710 995 c-7 -8 -9 -15 -5 -15 4 0 2 -7 -5 -15 -18 -21 -35 -19 -19
3 12 15 12 16 -2 5 -9 -7 -19 -10 -23 -6 -4 4 -4 0 0 -10 5 -14 0 -17 -22 -17
-16 0 -24 -4 -18 -8 9 -5 8 -10 -2 -19 -8 -8 -15 -9 -19 -3 -3 6 -3 10 1 10 3
0 1 7 -6 15 -7 8 -17 12 -22 9 -6 -4 -6 -10 1 -17 18 -18 13 -27 -14 -25 -14
1 -25 6 -25 11 0 4 -4 5 -10 2 -21 -13 -9 -24 33 -30 36 -6 50 -3 80 18 35 24
38 24 94 11 32 -7 68 -12 81 -9 12 2 22 -1 22 -6 0 -5 7 -9 15 -9 37 0 -12 40
-55 45 -52 6 -80 18 -71 28 5 7 9 16 9 20 0 5 4 12 8 15 4 4 4 2 1 -4 -8 -14
14 -24 53 -24 15 0 30 -6 33 -14 9 -22 61 -43 101 -41 34 2 61 12 33 12 -25 0
-67 35 -67 57 0 11 -4 17 -8 11 -4 -5 -36 -11 -71 -12 -41 -1 -59 2 -50 8 9 5
10 9 2 9 -6 0 -18 2 -26 5 -7 3 -20 -1 -27 -10z"/>
<path d="M2950 997 c0 -15 28 -57 39 -57 9 0 7 27 -4 53 -8 20 -35 23 -35 4z"/>
<path d="M1615 990 c-3 -5 -1 -10 6 -10 7 0 2 -10 -11 -22 -14 -13 -28 -22
-33 -20 -5 1 -5 -17 -2 -41 5 -33 3 -48 -9 -60 -9 -8 -16 -24 -15 -34 0 -15 1
-15 9 3 14 36 39 37 76 4 19 -16 37 -30 39 -30 7 0 -5 62 -21 103 -8 20 -14
55 -14 77 0 38 -12 52 -25 30z m17 -85 c4 -5 8 -20 8 -33 0 -17 -5 -22 -17
-20 -11 2 -18 12 -17 25 0 12 -3 20 -8 17 -9 -6 -11 10 -2 19 9 8 27 4 36 -8z"/>
<path d="M2315 980 c4 -10 -2 -15 -18 -16 -37 -2 -101 -74 -66 -74 5 0 7 5 4
10 -3 6 3 10 14 10 12 0 21 5 21 11 0 32 69 48 78 19 2 -5 13 -10 25 -9 15 0
17 2 7 6 -8 4 -20 13 -27 22 -7 9 -13 12 -13 7 0 -6 -7 -1 -15 10 -9 11 -13
13 -10 4z"/>
<path d="M1750 966 c0 -15 -16 -16 -37 -3 -8 5 -13 4 -13 -2 0 -6 4 -11 9 -11
5 0 12 -8 14 -17 4 -17 5 -17 6 0 0 10 5 16 10 13 4 -3 19 3 31 14 l23 20 -21
0 c-12 0 -22 -6 -22 -14z"/>
<path d="M3 933 c0 -14 49 -66 81 -85 6 -3 27 -3 46 2 25 6 28 8 12 9 -16 1
-21 5 -16 13 10 16 13 48 4 48 -14 0 -19 -14 -9 -26 7 -9 5 -14 -10 -19 -25
-8 -44 2 -35 17 4 6 2 8 -4 4 -5 -3 -12 -3 -14 1 -2 5 -15 18 -29 31 -22 19
-26 20 -26 5z"/>
<path d="M2405 923 l-30 -16 40 -12 c45 -13 69 -10 87 12 9 12 9 16 -3 24 -8
5 -18 8 -24 8 -5 0 -5 -3 2 -5 7 -3 9 -12 6 -20 -4 -11 -9 -12 -19 -3 -10 8
-14 8 -14 0 0 -6 -4 -11 -9 -11 -5 0 -7 9 -4 20 6 24 6 24 -32 3z"/>
<path d="M525 912 c-16 -10 -39 -17 -50 -15 -20 3 -20 3 0 -6 18 -9 17 -10 -8
-10 -15 -1 -30 -8 -33 -16 -5 -12 -10 -13 -20 -5 -18 16 -98 2 -128 -21 -31
-24 -39 -24 -26 1 8 14 8 20 0 20 -6 0 -13 -7 -16 -15 -4 -8 -10 -12 -15 -9
-5 3 -9 -2 -9 -10 0 -20 -20 -20 -46 -1 -25 19 -40 19 -24 0 6 -8 10 -18 7
-22 -3 -4 -1 -18 4 -30 7 -20 15 -23 64 -23 34 0 55 4 55 11 0 7 -11 9 -30 5
-29 -5 -70 10 -70 26 0 5 18 8 39 8 22 0 68 9 103 20 34 11 73 20 86 20 12 0
45 11 72 25 29 15 51 21 55 15 3 -6 15 -10 25 -10 10 0 22 -9 25 -21 5 -14 12
-18 23 -14 10 4 52 14 96 22 92 19 157 8 215 -35 26 -19 45 -25 76 -23 31 1
46 -3 60 -19 22 -24 53 -25 137 -4 35 9 90 18 123 19 74 4 70 2 56 18 -6 8 -8
17 -4 20 3 4 1 7 -4 7 -6 0 -13 -4 -15 -8 -1 -5 -16 -12 -31 -16 -19 -4 -26
-3 -22 4 3 5 1 10 -4 10 -6 0 -11 -4 -11 -9 0 -5 -10 -11 -21 -14 -17 -4 -19
-3 -10 6 22 22 10 27 -18 6 -16 -12 -34 -18 -40 -15 -6 4 -11 2 -11 -4 0 -6
-5 -8 -10 -5 -6 4 -17 1 -25 -5 -12 -10 -17 -8 -24 11 -7 17 -10 19 -10 7 -1
-30 -21 -31 -47 -2 -23 24 -82 45 -69 24 3 -4 -9 -10 -26 -12 -24 -4 -34 1
-50 24 -14 19 -27 27 -38 23 -12 -3 -21 2 -29 17 -6 13 -11 19 -11 13 -1 -8
-76 -12 -76 -5 0 9 -43 6 -59 -5 -42 -27 -125 -26 -114 1 1 5 -10 10 -25 12
-23 3 -26 6 -16 18 15 18 10 18 -26 -4z"/>
<path d="M2641 895 c-1 -6 4 -16 11 -23 10 -10 5 -11 -22 -6 -31 7 -34 6 -22
-9 8 -9 35 -19 60 -23 51 -7 90 -23 62 -24 -30 -2 25 -19 65 -19 22 -1 51 -8
65 -16 14 -8 33 -18 43 -21 13 -5 15 -10 7 -19 -9 -10 -7 -12 8 -8 13 3 18 11
15 23 -4 15 2 20 31 25 22 5 36 13 36 22 0 8 -4 11 -10 8 -5 -3 -10 0 -10 7 0
9 -3 9 -10 -2 -8 -13 -11 -11 -16 8 -4 13 -13 21 -22 20 -9 -2 -17 4 -17 12
-2 26 6 32 19 14 9 -11 19 -14 35 -9 21 6 21 8 6 25 -10 11 -31 18 -60 18
l-45 1 17 -27 c9 -15 24 -36 33 -47 33 -39 35 -48 9 -35 -30 16 -60 46 -52 53
8 8 -53 37 -78 37 -16 0 -20 -5 -16 -20 6 -24 8 -24 -60 -4 -42 12 -53 19 -48
31 4 13 3 13 -9 4 -11 -9 -15 -9 -19 1 -3 7 -6 8 -6 3z m180 -76 c-3 -4 -16
-10 -28 -14 -17 -5 -23 -2 -23 9 0 9 6 16 14 16 8 0 17 8 21 18 7 16 8 15 15
-3 4 -11 5 -23 1 -26z m49 0 c7 -11 9 -23 6 -27 -3 -3 -6 0 -6 6 0 6 -7 9 -15
6 -10 -4 -15 0 -15 15 0 27 16 27 30 0z"/>
<path d="M1760 852 c0 -3 8 -14 18 -25 9 -11 11 -17 5 -13 -7 4 -13 3 -13 -2
0 -5 8 -12 18 -14 14 -4 18 1 20 22 2 22 -3 29 -23 32 -14 3 -25 3 -25 0z"/>
<path d="M2299 818 c-8 -27 -14 -36 -16 -25 -3 9 -8 17 -11 17 -4 0 -12 -8
-18 -17 -10 -16 -7 -18 23 -20 19 -1 33 3 34 10 1 7 2 17 4 22 1 6 3 16 3 23
1 7 6 10 12 7 6 -3 7 1 4 9 -10 27 -23 18 -35 -26z"/>
<path d="M2446 845 c3 -7 1 -16 -5 -20 -18 -10 -12 -31 12 -44 l22 -12 -22 5
c-13 2 -23 1 -23 -4 0 -14 -31 -20 -51 -10 -11 6 -19 21 -19 35 0 27 11 31 40
15 15 -8 17 -6 13 10 -4 15 -12 19 -29 16 -32 -6 -46 -15 -38 -27 3 -5 1 -16
-6 -24 -9 -10 -7 -15 9 -20 12 -3 26 -15 31 -25 13 -25 2 -53 -19 -45 -11 5
-10 1 4 -13 17 -17 20 -17 24 -3 2 9 12 22 22 29 11 7 19 20 19 28 0 9 10 14
29 14 17 0 33 5 36 10 13 22 32 8 54 -39 12 -27 28 -52 36 -55 9 -3 5 10 -12
35 -28 42 -25 61 7 41 17 -10 18 -9 14 6 -5 16 -5 16 8 0 17 -20 60 -32 105
-31 18 1 35 -3 39 -8 3 -5 10 -7 15 -4 5 4 9 -1 9 -9 0 -17 15 -22 24 -7 3 5
21 12 41 15 19 4 37 12 41 17 4 8 -1 9 -17 3 -29 -9 -40 -9 -104 6 -27 7 -65
11 -82 11 -18 0 -33 3 -33 8 0 4 -18 13 -40 20 -22 7 -38 16 -35 21 6 10 -35
7 -53 -4 -7 -4 -19 -1 -27 7 -8 9 -20 17 -27 20 -10 4 -10 7 0 18 11 12 15 11
23 -3 13 -23 34 -23 58 1 17 17 17 20 4 25 -24 10 -40 7 -23 -4 13 -9 13 -10
0 -10 -8 0 -29 4 -47 9 -25 7 -31 6 -27 -4z"/>
<path d="M105 816 c-23 -16 -5 -29 25 -18 18 7 19 10 8 20 -11 9 -19 9 -33 -2z"/>
<path d="M453 817 c8 -23 -19 -34 -44 -19 -25 16 -29 15 -30 -5 0 -11 -3 -13
-6 -5 -2 6 -10 9 -16 5 -12 -8 -17 -9 -37 -12 -5 0 -10 -6 -10 -12 0 -8 11 -9
33 -4 17 4 42 7 54 6 12 0 35 5 51 12 28 12 29 14 15 32 -13 17 -15 17 -10 2z"/>
<path d="M1975 820 c3 -5 -3 -17 -15 -27 -11 -10 -20 -24 -20 -31 0 -11 2 -11
13 0 14 14 37 53 37 62 0 3 -5 6 -11 6 -5 0 -7 -4 -4 -10z"/>
<path d="M770 810 c-8 -5 -11 -10 -6 -10 5 0 3 -7 -4 -15 -7 -8 -17 -12 -24
-8 -6 4 -5 0 2 -9 10 -13 10 -17 0 -22 -7 -3 -3 -3 10 0 15 4 24 0 28 -10 7
-18 34 -22 34 -6 0 6 -7 13 -15 16 -12 5 -13 10 -4 20 9 11 8 14 -1 14 -7 0
-10 8 -7 20 3 11 4 20 4 20 -1 0 -9 -5 -17 -10z"/>
<path d="M80 775 c0 -8 -5 -15 -11 -15 -5 0 -8 4 -4 9 3 6 -6 6 -24 1 -16 -4
-32 -6 -35 -2 -3 3 -6 -5 -6 -17 0 -18 4 -22 18 -16 19 8 45 13 80 14 20 1 21
3 10 21 -15 24 -28 26 -28 5z"/>
<path d="M1375 769 c-4 -12 -15 -19 -31 -19 -16 0 -24 -5 -23 -17 0 -11 3 -13
6 -5 2 6 13 12 23 12 10 0 21 4 25 10 3 5 11 7 19 4 7 -3 13 2 13 10 0 23 -25
27 -32 5z"/>
<path d="M1506 774 c-9 -24 -8 -26 15 -19 15 5 19 4 15 -4 -4 -6 0 -11 8 -11
21 0 20 6 -4 30 -24 24 -26 24 -34 4z"/>
<path d="M838 750 c12 -12 22 -26 22 -32 0 -19 14 1 17 25 2 15 0 18 -5 9 -7
-10 -11 -10 -22 3 -7 8 -17 15 -23 15 -6 0 -1 -9 11 -20z"/>
<path d="M952 754 c-16 -17 -15 -29 3 -44 11 -9 12 -16 4 -26 -8 -10 -6 -13
10 -11 30 2 33 23 5 36 -28 12 -31 26 -8 35 21 8 34 -1 28 -18 -3 -8 -1 -17 5
-20 6 -4 7 -14 4 -23 -4 -10 -2 -14 4 -10 6 4 16 0 23 -8 16 -20 30 -19 30 1
0 28 24 9 27 -22 2 -20 -4 -37 -22 -56 -14 -15 -25 -32 -25 -38 0 -6 -10 -8
-25 -4 -19 5 -25 3 -23 -7 2 -8 -8 -15 -22 -17 -14 -2 -31 -8 -37 -14 -7 -6
-20 -8 -28 -4 -8 3 -26 1 -40 -4 -20 -8 -25 -6 -25 6 0 14 -3 14 -15 4 -8 -7
-15 -18 -15 -24 0 -6 4 -5 9 3 6 9 11 10 15 2 4 -6 19 -8 34 -5 21 4 35 -2 62
-26 24 -22 29 -30 15 -26 -19 6 -19 5 -2 -8 17 -13 14 -51 -4 -40 -5 3 -9 1
-9 -5 0 -5 9 -9 20 -8 11 1 20 5 20 10 0 11 59 67 70 67 4 0 13 7 20 15 7 8
17 15 23 15 5 0 2 -9 -8 -20 -28 -31 -13 -33 19 -3 25 23 29 24 38 10 5 -10
16 -17 23 -17 8 0 15 -5 15 -11 0 -5 5 -7 10 -4 6 3 10 1 10 -5 0 -5 14 -23
31 -38 35 -31 51 -102 23 -102 -12 0 -13 -4 -3 -22 10 -18 13 -19 17 -8 12 40
148 150 165 134 3 -3 4 3 4 13 -2 12 12 25 41 39 23 11 40 23 36 27 -4 3 19 4
50 2 38 -3 68 -12 89 -27 l31 -22 -19 26 c-11 14 -22 26 -25 25 -3 -1 -15 4
-26 11 -12 6 -24 8 -28 5 -3 -3 -6 1 -6 10 0 24 -20 31 -34 11 -8 -11 -15 -13
-20 -6 -3 6 -2 13 4 17 5 3 10 21 10 39 0 19 7 39 15 46 17 14 21 60 5 60 -6
0 -8 11 -4 25 4 15 2 25 -5 25 -6 0 -11 -8 -11 -19 0 -10 -6 -24 -14 -30 -8
-6 -16 -23 -19 -36 -3 -20 -1 -23 8 -15 8 7 15 7 19 1 3 -5 -6 -19 -21 -31
-25 -19 -26 -20 -5 -15 19 5 22 2 22 -19 0 -17 -5 -26 -16 -26 -11 0 -15 -6
-11 -20 3 -11 1 -18 -3 -15 -5 3 -11 1 -15 -5 -10 -16 -23 -12 -21 8 0 9 8 20
16 24 10 4 6 7 -12 7 -16 1 -28 -4 -28 -11 0 -32 -50 -117 -71 -123 -23 -8
-53 -39 -75 -78 -7 -13 -13 -16 -18 -8 -4 6 -2 11 3 11 6 0 11 12 11 28 0 18
-13 40 -40 66 -22 22 -40 45 -40 52 0 12 -13 16 -90 29 -42 7 -105 -16 -120
-45 -10 -19 -11 -19 -30 0 -29 29 -25 35 29 49 69 17 131 91 131 155 0 27 -30
61 -61 69 -16 4 -17 2 -8 -15 8 -15 8 -23 -1 -32 -15 -14 -40 17 -33 43 8 30
-43 58 -65 35z"/>
<path d="M1813 757 c-4 -8 -17 -19 -28 -26 -14 -9 -15 -11 -3 -7 10 3 20 1 23
-4 12 -20 24 -9 23 20 -1 33 -3 36 -15 17z"/>
<path d="M1135 739 c4 -5 25 -9 47 -9 23 0 38 3 35 6 -10 11 -88 13 -82 3z"/>
<path d="M2297 736 c-5 -12 1 -16 23 -16 17 0 30 5 30 10 0 6 -4 10 -9 10 -5
0 -16 3 -24 6 -8 3 -17 -2 -20 -10z"/>
<path d="M654 731 c-10 -10 -3 -21 13 -21 9 0 25 -7 35 -17 11 -9 18 -11 18
-5 0 7 -4 12 -10 12 -5 0 -10 5 -10 11 0 6 7 9 14 6 9 -4 13 -1 10 6 -4 11
-60 17 -70 8z"/>
<path d="M1455 731 c-5 -10 -4 -16 3 -19 7 -2 12 -10 12 -18 0 -19 16 -18 24
1 3 9 0 15 -9 15 -7 0 -15 8 -17 18 -3 14 -5 15 -13 3z"/>
<path d="M1380 691 c0 -22 -4 -41 -10 -43 -5 -1 -7 -13 -4 -25 4 -13 11 -20
20 -16 8 3 14 -1 14 -11 0 -9 5 -16 10 -16 6 0 4 13 -5 30 -19 36 -19 32 5 60
15 17 17 27 9 41 -18 34 -39 23 -39 -20z"/>
<path d="M610 711 c0 -5 -30 -17 -67 -26 -86 -22 -153 -48 -153 -59 0 -4 8 -5
17 -2 9 4 20 1 25 -6 6 -10 8 -9 8 3 0 18 20 29 51 29 10 0 19 4 19 9 0 5 8 8
18 6 9 -1 32 3 50 11 17 7 32 10 32 7 0 -3 7 0 15 7 8 7 15 16 15 21 0 5 -7 9
-15 9 -8 0 -15 -4 -15 -9z"/>
<path d="M890 711 c0 -5 3 -17 6 -26 5 -13 9 -14 15 -3 7 11 11 10 19 -2 5 -8
10 -10 10 -4 0 11 -32 44 -43 44 -4 0 -7 -4 -7 -9z"/>
<path d="M2203 705 c-17 -19 -17 -30 0 -16 8 6 17 7 23 1 5 -5 15 -6 24 0 16
10 13 15 -15 23 -11 4 -25 0 -32 -8z"/>
<path d="M2270 700 c0 -5 9 -10 19 -10 24 0 38 -20 21 -30 -9 -5 -9 -9 -1 -14
8 -5 8 -13 1 -26 -16 -30 -13 -47 5 -29 14 14 24 93 13 104 -11 11 -58 15 -58
5z"/>
<path d="M2416 687 c-12 -9 -15 -16 -8 -21 6 -3 14 -1 18 5 5 8 9 8 14 -1 5
-9 20 -10 46 -6 25 5 33 10 25 16 -11 6 -11 9 0 13 9 4 8 6 -5 6 -10 1 -25 -7
-32 -16 -12 -17 -13 -17 -26 0 -12 15 -16 16 -32 4z"/>
<path d="M2815 680 c-9 -15 14 -41 29 -33 6 3 8 3 4 -2 -4 -4 -3 -14 4 -22 8
-11 7 -17 -8 -28 -24 -18 -6 -20 48 -5 27 8 44 8 58 0 16 -9 20 -8 20 5 0 8 7
15 15 15 8 0 15 9 15 19 0 19 -2 19 -33 6 -43 -18 -86 -9 -119 26 -16 17 -29
25 -33 19z"/>
<path d="M6 643 c-3 -3 -6 -18 -6 -31 0 -14 3 -22 7 -19 3 4 13 1 21 -6 9 -6
13 -7 9 -1 -3 6 0 11 8 11 8 0 12 -3 10 -7 -2 -3 0 -11 4 -18 6 -10 18 -8 53
8 53 23 248 36 281 18 10 -5 21 -7 24 -4 10 10 -51 28 -112 32 -33 3 -107 6
-165 7 -58 2 -110 6 -116 10 -6 3 -14 4 -18 0z"/>
<path d="M1252 638 c-9 -9 -9 -15 0 -26 10 -12 9 -14 -7 -10 -11 2 -19 9 -18
15 1 6 -11 13 -27 15 -37 6 -38 1 -2 -14 21 -9 23 -12 10 -15 -19 -5 -23 -29
-9 -52 7 -11 13 -11 32 0 20 11 21 14 7 17 -10 2 -18 11 -18 19 0 14 4 12 23
-5 34 -32 72 -29 91 8 8 17 11 30 6 30 -4 0 -11 -7 -14 -16 -3 -8 -11 -12 -17
-8 -6 3 -15 0 -20 -7 -4 -7 -12 -10 -16 -5 -4 5 -2 11 5 13 16 6 15 28 -1 42
-10 8 -17 7 -25 -1z"/>
<path d="M1643 628 c-32 -36 -39 -53 -20 -45 10 3 17 3 17 -2 0 -17 -14 -20
-29 -7 -13 12 -19 12 -34 2 -23 -18 -14 -39 23 -53 17 -6 28 -8 25 -3 -3 4 6
11 19 14 18 4 25 14 29 43 2 21 6 44 8 52 7 23 -16 23 -38 -1z"/>
<path d="M1888 621 c-14 -16 -31 -38 -37 -49 -14 -26 -48 -19 -78 17 -12 14
-22 22 -22 16 0 -17 36 -55 53 -55 19 0 21 -21 4 -39 -11 -10 -10 -11 5 -6 9
4 17 13 17 20 0 29 9 30 260 35 l45 1 -30 14 c-40 19 -65 18 -87 -1 -15 -14
-20 -15 -34 -4 -13 12 -17 11 -24 0 -5 -8 -12 -11 -15 -8 -12 12 7 30 25 25
10 -2 24 -1 31 4 10 6 8 9 -9 9 -13 0 -34 11 -48 25 -14 14 -26 25 -28 25 -1
0 -14 -13 -28 -29z"/>
<path d="M2229 615 c-1 -16 -2 -38 -1 -47 1 -10 -4 -18 -11 -18 -25 0 89 -49
116 -50 16 0 26 -4 22 -10 -12 -20 14 -9 73 30 69 47 84 49 106 15 21 -32 20
-42 -4 -48 -11 -3 -20 -2 -20 3 0 4 -9 10 -19 13 -22 5 -48 -7 -33 -17 6 -3
12 -1 14 5 2 7 9 5 17 -5 12 -14 12 -16 -1 -11 -8 3 -21 -1 -28 -10 -7 -8 -22
-15 -34 -15 -29 0 -100 -37 -84 -43 9 -4 8 -6 -2 -6 -9 -1 -21 4 -27 10 -6 6
-17 8 -24 3 -9 -5 -8 -9 7 -15 18 -6 17 -8 -6 -17 -14 -6 -18 -11 -9 -11 8 -1
21 5 28 12 10 10 15 9 25 -5 19 -26 54 -23 58 3 2 12 10 25 18 29 8 4 24 12
35 18 77 44 73 43 109 28 36 -15 90 -11 64 5 -7 5 -24 9 -38 9 -17 0 -21 3
-13 11 7 7 22 8 47 1 21 -6 36 -7 36 -1 0 5 7 9 15 9 8 0 15 4 15 9 0 5 15 8
33 7 47 -4 49 -5 42 -15 -9 -16 35 -25 120 -26 44 0 90 -4 103 -9 16 -5 22 -4
22 8 0 23 -38 40 -56 25 -8 -6 -17 -10 -20 -7 -8 9 47 40 62 34 8 -3 14 1 14
9 0 21 -18 19 -73 -10 -26 -14 -52 -23 -56 -20 -5 3 -11 0 -13 -6 -5 -15 -88
10 -87 26 0 5 -8 12 -18 16 -17 6 -17 7 0 14 9 4 25 4 35 0 29 -13 51 -15 57
-5 3 5 -6 12 -21 16 -19 5 -22 9 -12 15 10 7 9 9 -5 9 -10 0 -15 5 -12 10 3 6
1 10 -5 10 -7 0 -9 -7 -6 -16 5 -12 2 -15 -10 -10 -18 7 -58 -27 -46 -39 4 -4
-2 -6 -13 -4 -11 2 -26 0 -32 -4 -7 -5 -13 -5 -13 -1 0 4 -9 -1 -21 -12 -13
-12 -23 -14 -27 -8 -9 14 -42 14 -42 0 0 -15 -23 11 -26 29 -1 10 6 15 22 15
13 0 24 5 24 10 0 12 -2 12 -34 0 -27 -10 -46 3 -23 17 16 10 30 43 18 43 -5
0 -11 -7 -15 -15 -9 -24 -56 -38 -84 -25 -17 7 -28 7 -40 -1 -16 -10 -16 -10
1 -5 9 3 24 3 32 -1 12 -4 10 -9 -11 -19 -35 -18 -32 -20 -50 25 -10 27 -20
38 -30 34 -8 -3 -14 -12 -14 -20 0 -9 6 -13 15 -9 8 3 15 0 15 -7 0 -7 3 -22
6 -35 6 -20 4 -22 -20 -18 -14 2 -29 0 -32 -6 -4 -7 -9 -6 -14 2 -4 6 -16 13
-26 14 -10 2 -17 10 -16 17 2 8 0 11 -4 7 -14 -14 -34 13 -24 32 6 12 5 23 -5
36 -14 18 -14 17 -16 -11z"/>
<path d="M2136 591 c-3 -4 6 -13 20 -20 33 -15 36 -14 32 6 -3 17 -43 28 -52
14z"/>
<path d="M1370 584 c0 -17 31 -54 46 -54 8 0 14 7 14 15 0 8 -5 15 -12 15 -6
0 -20 7 -30 17 -10 9 -18 12 -18 7z"/>
<path d="M175 550 c-11 -16 -23 -30 -27 -30 -5 0 -8 -5 -8 -11 0 -6 14 -1 30
11 17 12 28 26 25 31 -4 5 1 9 9 9 9 0 16 5 16 10 0 20 -26 9 -45 -20z"/>
<path d="M2894 562 c-6 -4 -14 -16 -18 -27 -6 -17 -4 -16 16 5 20 21 23 22 26
7 5 -24 22 -21 22 3 0 20 -24 27 -46 12z"/>
<path d="M313 522 c-18 -9 -33 -20 -33 -24 0 -5 10 -2 22 6 12 9 32 16 45 16
12 0 24 4 27 8 8 14 -28 10 -61 -6z"/>
<path d="M2145 533 c11 -3 24 -9 30 -14 14 -13 -52 -11 -74 2 -11 8 -29 9 -47
4 l-29 -8 30 -7 c17 -3 33 -2 36 3 4 6 12 0 18 -12 10 -17 16 -19 31 -11 35
19 41 6 12 -28 -13 -15 -29 -20 -54 -19 -20 1 -34 5 -31 10 2 4 -1 7 -6 7 -6
0 -11 -5 -11 -11 0 -5 -4 -8 -8 -5 -4 2 -39 -4 -77 -14 -69 -19 -180 -28 -125
-10 23 7 23 8 -9 9 -29 1 -33 4 -29 24 4 23 3 24 -44 19 -37 -3 -48 -1 -48 10
0 10 9 13 35 10 19 -2 35 0 35 6 0 13 -39 23 -46 11 -3 -5 -11 -6 -17 -2 -23
14 -37 11 -37 -8 0 -10 0 -22 -1 -26 0 -4 28 -17 62 -29 34 -12 66 -27 72 -33
6 -6 19 -11 30 -11 10 0 16 -4 12 -9 -3 -5 -1 -12 4 -15 5 -3 12 2 15 11 5 13
9 14 19 4 9 -9 9 -13 0 -19 -18 -11 -4 -49 20 -56 13 -3 27 2 38 16 18 19 20
20 65 4 35 -12 50 -13 55 -5 4 6 12 8 18 4 7 -4 18 -1 26 5 17 14 20 40 4 40
-5 0 -7 -4 -4 -10 3 -5 0 -10 -7 -11 -122 -7 -142 -3 -118 26 7 9 9 15 4 14
-5 -1 -18 -1 -29 0 -15 1 -17 3 -6 10 7 5 21 6 31 4 10 -3 26 -1 36 5 23 11
70 0 67 -16 -2 -8 13 -12 42 -12 49 0 58 -11 23 -29 l-23 -11 23 6 c22 5 23 4
17 -53 -3 -34 -2 -53 4 -45 7 11 9 11 14 -2 8 -21 27 -21 27 0 0 8 -4 13 -8
10 -10 -6 -9 30 1 40 14 14 7 44 -8 38 -10 -4 -15 0 -15 15 0 29 20 49 42 43
10 -2 18 1 18 7 0 6 -6 11 -14 11 -15 0 -30 27 -27 46 1 7 -6 15 -15 18 -16 6
-15 8 2 21 16 13 17 16 4 25 -8 5 -28 9 -45 9 -21 -1 -24 -3 -10 -6z m51 -98
c13 -12 12 -15 -4 -24 -11 -6 -24 -6 -35 1 -13 7 -22 6 -33 -2 -10 -9 -14 -9
-14 -1 0 6 8 14 18 17 9 3 24 9 32 14 20 12 19 12 36 -5z"/>
<path d="M99 516 c-3 -3 -26 -6 -52 -7 -43 -3 -47 -5 -47 -29 0 -24 3 -26 34
-22 59 7 60 -35 0 -57 -34 -12 -38 -31 -6 -31 19 0 52 33 52 51 0 6 6 9 13 6
10 -4 13 2 9 18 -2 13 -12 26 -21 28 -9 3 1 3 21 2 28 -2 35 0 31 11 -3 8 -9
11 -14 8 -5 -3 -6 2 -3 10 6 15 -6 22 -17 12z"/>
<path d="M1958 507 c31 -7 46 -7 54 1 9 9 -1 12 -42 11 l-55 -1 43 -11z"/>
<path d="M1865 503 c-28 -4 -44 -18 -45 -35 0 -14 37 -8 50 7 7 8 24 15 39 15
20 0 23 2 11 10 -8 5 -17 9 -20 8 -3 0 -18 -3 -35 -5z"/>
<path d="M2216 495 c-6 -17 9 -29 24 -20 6 3 10 1 10 -4 0 -6 -5 -11 -10 -11
-6 0 -3 -11 7 -24 15 -20 21 -22 33 -12 8 7 24 16 34 20 24 8 19 13 -43 41
-40 19 -51 21 -55 10z"/>
<path d="M610 478 c0 -19 -65 -78 -85 -78 -9 0 -28 9 -42 20 -14 11 -31 20
-37 20 -6 0 -2 -7 8 -15 20 -15 20 -15 0 -15 -11 0 -26 6 -32 12 -10 10 -17
10 -32 0 -25 -15 -72 -16 -88 0 -9 9 -12 8 -12 -6 0 -11 -5 -15 -12 -10 -8 4
-9 3 -5 -2 5 -5 50 -9 100 -10 51 0 111 -4 134 -8 25 -5 48 -5 55 1 7 5 24 8
38 8 14 -1 35 -3 48 -3 14 -1 20 -6 17 -13 -4 -6 -9 -8 -12 -5 -3 3 -15 -1
-26 -9 -11 -8 -32 -12 -46 -9 -16 3 -34 -1 -46 -11 -19 -16 -17 -16 32 -11 28
3 70 14 93 25 47 22 76 20 150 -11 25 -11 80 -31 122 -44 43 -14 80 -29 83
-34 8 -13 35 -13 35 0 0 6 -9 10 -20 10 -11 0 -20 4 -20 8 0 4 -14 13 -31 19
-25 10 -30 17 -26 33 4 17 3 19 -9 9 -7 -6 -25 -8 -39 -5 -14 4 -26 5 -28 4
-2 -2 -10 2 -18 8 -12 10 -60 28 -109 42 -8 2 -37 5 -65 7 -94 4 -101 7 -70
39 17 17 19 32 5 41 -5 3 -10 0 -10 -7z"/>
<path d="M1300 467 c-14 -13 -32 -31 -40 -42 -13 -16 -10 -16 18 4 17 12 32
19 32 16 0 -4 7 0 15 9 16 15 20 36 8 36 -5 0 -19 -11 -33 -23z"/>
<path d="M2672 456 c10 -7 16 -15 13 -17 -2 -3 8 -5 23 -4 17 0 27 -5 27 -15
0 -8 10 -25 23 -38 12 -12 20 -27 17 -31 -8 -14 16 -7 65 18 39 21 42 25 25
31 -12 4 -27 15 -34 24 -7 9 -20 16 -27 16 -8 0 -14 4 -14 9 0 13 -58 19 -70
7 -7 -7 -16 -7 -30 2 -26 16 -40 15 -18 -2z m155 -40 c3 -3 -1 -8 -10 -12 -9
-3 -13 -12 -10 -21 5 -11 3 -14 -6 -9 -7 5 -10 15 -7 23 5 11 1 14 -13 10 -13
-3 -18 0 -15 8 5 12 50 13 61 1z"/>
<path d="M2587 414 c-3 -4 5 -16 19 -26 14 -11 26 -19 27 -17 2 2 9 13 17 24
14 18 13 19 -1 7 -13 -10 -19 -9 -29 3 -13 16 -23 19 -33 9z"/>
<path d="M2692 403 c-6 -3 -10 -9 -6 -14 3 -5 0 -9 -5 -9 -6 0 -11 -5 -11 -11
0 -8 4 -8 14 0 7 6 22 8 32 4 17 -6 18 -5 4 13 -8 10 -14 20 -15 20 0 1 -6 -1
-13 -3z"/>
<path d="M1500 380 c0 -5 -7 -10 -15 -10 -8 0 -15 -5 -15 -11 0 -5 5 -7 11 -4
5 4 19 -1 30 -11 29 -26 48 -3 20 25 -23 23 -31 26 -31 11z"/>
<path d="M2416 379 c3 -6 0 -16 -7 -21 -11 -8 -11 -9 2 -5 17 5 39 -10 39 -26
0 -4 -10 -6 -22 -3 -13 3 -17 3 -10 0 6 -3 10 -10 7 -14 -3 -5 4 -7 15 -5 12
2 23 -2 27 -10 3 -8 9 -15 14 -15 14 0 11 28 -3 33 -10 4 -10 6 0 6 6 1 12 7
12 15 0 16 -27 29 -41 20 -8 -5 -13 9 -10 29 0 4 -6 7 -15 7 -8 0 -12 -5 -8
-11z"/>
<path d="M2520 381 c0 -10 47 -21 54 -13 3 3 3 9 0 13 -7 12 -54 12 -54 0z"/>
<path d="M1706 365 c8 -19 41 -38 72 -41 19 -2 21 0 11 12 -6 8 -22 14 -36 14
-13 0 -26 7 -29 15 -4 8 -10 15 -15 15 -4 0 -6 -7 -3 -15z"/>
<path d="M53 362 c-21 -13 21 -40 74 -47 26 -4 68 -17 93 -29 57 -29 100 -40
100 -26 0 6 6 8 13 4 6 -4 9 -4 5 1 -4 4 -23 9 -43 11 -47 4 -69 18 -70 43 0
11 -4 20 -10 18 -5 -1 -9 -5 -8 -8 1 -4 -7 -5 -17 -2 -11 3 -20 10 -20 15 0 5
-4 7 -9 4 -13 -8 -42 4 -36 14 3 5 -8 5 -24 0 -17 -5 -31 -4 -33 1 -2 4 -9 5
-15 1z"/>
<path d="M275 361 c-3 -6 -2 -11 4 -11 6 0 8 -7 5 -15 -4 -10 0 -15 12 -15 23
0 64 -39 58 -55 -4 -9 2 -11 20 -8 24 5 23 6 -22 45 -26 22 -52 46 -59 55 -7
9 -13 11 -18 4z"/>
<path d="M460 360 c-8 -5 -11 -12 -7 -17 12 -11 57 -15 57 -4 0 16 -35 31 -50
21z"/>
<path d="M2594 362 c4 -7 1 -12 -8 -12 -20 0 -31 -19 -18 -32 6 -6 20 -4 42 7
27 14 33 30 12 30 -4 0 -13 4 -21 9 -10 6 -12 5 -7 -2z"/>
<path d="M2924 355 c-4 -8 -14 -15 -23 -16 -10 0 -11 -2 -3 -6 6 -2 10 -9 6
-14 -11 -18 27 -21 46 -4 10 9 24 14 31 9 7 -4 10 -3 6 3 -4 6 -16 13 -27 16
-11 3 -18 1 -14 -4 3 -5 0 -9 -7 -9 -6 0 -9 8 -6 20 6 23 -1 27 -9 5z"/>
<path d="M1613 345 c-11 -11 -10 -16 5 -24 9 -6 13 -11 8 -11 -5 0 8 -11 29
-25 20 -15 40 -24 43 -20 3 3 -1 5 -8 5 -11 0 -11 3 -2 12 8 8 15 8 26 -1 9
-7 21 -11 28 -8 16 6 -35 27 -64 27 -27 0 -58 28 -51 46 7 18 2 17 -14 -1z"/>
<path d="M1658 338 c15 -19 65 -31 59 -14 -2 6 -13 11 -24 12 -11 1 -27 5 -34
9 -12 7 -12 6 -1 -7z"/>
<path d="M366 329 c3 -5 13 -9 22 -9 10 0 25 -9 35 -20 21 -24 40 -26 35 -3
-2 11 -20 21 -50 29 -27 6 -45 8 -42 3z"/>
<path d="M2295 320 c-3 -5 -19 -7 -35 -5 -19 2 -28 0 -24 -6 3 -6 22 -9 43 -8
20 2 47 -3 61 -11 24 -13 25 -12 7 7 -9 11 -15 22 -12 24 2 3 -5 5 -15 6 -11
1 -22 -2 -25 -7z"/>
<path d="M2630 319 c-13 -8 -13 -10 0 -18 8 -5 17 -8 21 -5 14 8 21 -17 9 -31
-9 -11 -15 -9 -35 11 -13 13 -30 24 -37 24 -8 -1 -5 -6 6 -15 11 -8 16 -18 13
-22 -4 -3 -7 -3 -7 1 0 4 -10 1 -22 -5 -19 -10 -25 -8 -49 22 -26 30 -28 32
-29 12 0 -12 -6 -24 -12 -26 -10 -4 -9 -8 2 -16 19 -13 117 -14 125 -1 6 9 13
7 64 -19 17 -9 26 -10 34 -2 8 8 7 11 -4 11 -8 0 -21 15 -27 34 -16 43 -33 58
-52 45z"/>
<path d="M27 313 c6 -4 15 -22 19 -38 7 -27 6 -29 -9 -16 -10 7 -17 9 -17 3 0
-12 29 -24 41 -16 13 8 11 -40 -3 -54 -9 -9 -17 -4 -35 20 -16 22 -23 27 -23
15 0 -9 4 -17 10 -17 5 0 7 -6 4 -14 -6 -17 17 -27 79 -32 26 -2 56 -8 66 -14
22 -11 92 9 117 35 18 18 101 20 138 4 28 -13 43 -39 22 -39 -7 0 -19 -6 -26
-14 -6 -8 -18 -12 -26 -9 -8 3 -14 0 -14 -7 0 -6 4 -9 9 -6 5 4 11 1 13 -6 3
-7 12 -9 22 -5 9 4 14 11 11 17 -3 5 -1 10 4 10 23 0 10 -46 -18 -65 -16 -10
-31 -29 -34 -42 -2 -12 0 -20 4 -17 5 3 9 11 9 19 0 7 11 16 25 19 14 4 25 13
25 22 0 8 7 17 15 20 8 4 15 10 15 16 0 5 -5 6 -11 2 -8 -5 -8 -1 0 14 13 24
15 63 4 61 -19 -3 -22 3 -13 27 7 19 7 31 -1 40 -7 8 -14 12 -17 9 -3 -2 1
-11 8 -20 7 -8 11 -15 9 -16 -38 -7 -49 -7 -49 0 0 5 -36 8 -80 8 -44 -1 -80
2 -80 7 0 4 -7 6 -15 2 -9 -3 -15 0 -15 9 0 12 -16 15 -75 15 l-75 0 6 25 c4
15 2 25 -4 25 -6 0 -19 3 -29 6 -11 4 -14 3 -6 -3z m134 -83 c-8 -4 4 -10 30
-14 60 -10 31 -31 -36 -27 -52 3 -60 45 -10 48 17 0 23 -2 16 -7z"/>
<path d="M1535 310 c-3 -5 1 -10 9 -10 8 0 18 -9 21 -20 3 -11 11 -20 16 -20
6 0 7 -4 4 -10 -3 -6 1 -7 9 -4 17 7 22 53 6 55 -5 1 -14 2 -19 3 -5 0 -13 4
-17 9 -10 10 -22 9 -29 -3z"/>
<path d="M1990 311 c0 -8 -8 -10 -20 -6 -11 3 -20 2 -20 -3 0 -4 24 -9 53 -9
28 -1 43 1 32 4 -11 3 -26 10 -32 15 -9 7 -13 7 -13 -1z"/>
<path d="M494 295 c11 -8 29 -15 40 -15 21 1 21 1 2 15 -11 8 -29 15 -40 15
-21 -1 -21 -1 -2 -15z"/>
<path d="M1339 298 c-8 -27 -7 -48 2 -43 6 4 9 0 7 -11 -2 -11 4 -20 16 -22
11 -2 16 0 12 7 -4 6 -2 11 4 11 7 0 14 -9 17 -20 3 -11 9 -20 13 -20 6 0 7
17 1 54 0 4 -10 6 -21 3 -11 -3 -18 -2 -17 1 2 4 -4 15 -15 25 -10 9 -18 16
-19 15z"/>
<path d="M1824 269 c0 -21 13 -24 35 -10 17 11 61 -14 61 -35 0 -10 -9 -12
-32 -9 l-33 5 30 -10 c16 -5 35 -17 42 -26 13 -17 6 -47 -8 -38 -5 3 -7 9 -4
13 2 5 -7 6 -21 3 -22 -4 -23 -6 -7 -17 9 -7 24 -11 32 -10 9 2 22 4 29 4 7 1
10 6 6 13 -4 6 -3 8 4 4 6 -3 13 -2 17 4 3 5 1 10 -5 10 -6 0 -8 5 -5 10 3 6
-3 10 -14 10 -21 0 -29 16 -11 22 6 2 -1 15 -14 29 -14 15 -22 30 -19 33 4 3
-2 7 -13 7 -10 1 -30 3 -44 4 -20 3 -26 -1 -26 -16z"/>
<path d="M562 269 c2 -9 -8 -13 -29 -14 -18 0 -33 3 -33 8 0 4 -7 7 -16 7 -13
0 -14 -3 -5 -14 7 -8 33 -14 64 -15 28 0 54 -6 56 -12 2 -8 7 -7 13 2 7 11 11
11 15 1 2 -6 9 -10 14 -7 4 3 23 -2 41 -12 18 -9 42 -18 53 -20 10 -2 22 -9
27 -15 4 -7 10 -9 14 -6 4 4 16 2 28 -4 37 -19 3 9 -39 32 -34 19 -36 21 -13
17 16 -2 32 1 37 7 7 8 -8 11 -50 11 -33 0 -63 5 -67 11 -4 6 -23 15 -42 18
-19 4 -43 10 -53 13 -11 3 -16 0 -15 -8z"/>
<path d="M908 269 c-2 -5 -18 -11 -37 -14 -36 -4 -55 -15 -28 -15 10 0 17 -4
17 -9 0 -17 -20 -23 -35 -11 -10 8 -15 9 -15 2 0 -23 41 -24 65 -2 13 12 27
20 32 17 4 -2 16 3 26 13 17 17 17 18 -2 23 -11 3 -21 1 -23 -4z"/>
<path d="M2302 271 c-19 -11 5 -50 35 -57 29 -8 50 5 32 18 -10 7 -8 8 8 5 13
-3 24 1 27 9 3 8 2 14 -2 15 -41 4 -60 3 -55 -4 3 -5 -3 -7 -13 -5 -11 2 -18
10 -16 16 2 14 1 14 -16 3z"/>
<path d="M2709 263 c-7 -10 -9 -15 -5 -11 5 4 15 3 23 -3 9 -9 13 -8 13 0 0 6
3 10 8 9 4 0 15 2 24 6 24 11 53 3 53 -14 0 -10 -8 -14 -22 -13 -16 2 -21 -2
-17 -12 4 -9 0 -15 -10 -15 -9 0 -16 -5 -16 -11 0 -6 9 -9 19 -6 11 3 29 -2
41 -10 19 -13 24 -13 31 -2 5 8 9 19 9 24 0 6 -4 4 -8 -3 -6 -9 -15 -10 -33
-3 -21 9 -12 16 14 12 5 -1 6 3 2 9 -11 19 23 22 52 5 25 -16 26 -16 8 0 -11
9 -19 22 -17 29 5 29 -147 37 -169 9z"/>
<path d="M1265 239 c-4 -17 -3 -35 3 -41 6 -6 11 4 14 31 4 48 -7 55 -17 10z"/>
<path d="M1733 233 c4 -3 -3 -13 -15 -21 -16 -12 -23 -12 -26 -4 -7 22 -19 12
-15 -12 6 -29 -22 -86 -42 -86 -8 0 -17 -11 -21 -24 -3 -14 -13 -27 -21 -30
-13 -5 -14 0 -8 30 6 33 4 36 -12 30 -14 -6 -15 -4 -6 4 8 9 7 17 -5 31 -19
23 -32 24 -32 5 0 -20 56 -142 69 -150 7 -4 9 -1 5 8 -3 8 3 19 15 26 20 10
67 87 63 103 -1 4 3 7 9 7 6 0 9 6 7 12 -5 13 14 38 28 38 4 0 15 7 24 15 17
16 54 10 44 -6 -3 -5 -10 -6 -16 -3 -6 4 -8 2 -4 -4 9 -14 46 -11 46 4 0 7 -8
15 -17 19 -25 10 -78 16 -70 8z"/>
<path d="M2040 225 c-6 -7 -19 -16 -28 -18 -9 -2 -4 -3 12 -1 16 3 27 1 23 -2
-3 -4 10 -15 31 -25 41 -21 52 -23 52 -9 0 5 -6 7 -14 4 -7 -3 -16 3 -20 12
-8 22 16 39 27 19 4 -8 14 -15 20 -15 7 0 13 -9 14 -20 1 -14 -4 -20 -18 -20
-10 0 -19 -4 -19 -10 0 -5 6 -7 14 -4 8 3 16 -3 19 -15 3 -12 1 -21 -4 -21 -4
0 -6 -7 -3 -15 5 -11 10 -13 19 -5 6 5 15 7 19 3 4 -4 0 6 -8 22 -20 38 -20
45 2 45 16 1 16 1 0 10 -28 17 -15 43 23 48 54 6 48 13 -10 11 -29 -1 -56 2
-59 8 -11 15 -79 14 -92 -2z"/>
<path d="M2449 228 c-7 -25 -5 -36 7 -31 23 9 35 -6 23 -29 -11 -20 -10 -20
12 -4 26 17 43 21 35 7 -3 -5 1 -12 9 -15 13 -5 14 -10 5 -27 -11 -19 -10 -20
10 -9 18 10 22 9 27 -9 3 -11 11 -22 19 -25 24 -9 16 9 -21 47 -20 21 -33 37
-30 37 3 0 0 6 -7 14 -7 8 -17 12 -22 9 -4 -3 -11 -2 -15 3 -6 9 -50 36 -52
32z"/>
<path d="M1450 196 c0 -8 -14 -26 -31 -39 -17 -13 -29 -31 -27 -38 4 -10 14
-4 34 19 31 35 51 41 60 17 8 -21 25 -8 17 13 -11 33 -53 55 -53 28z"/>
<path d="M2370 191 c0 -7 8 -15 19 -18 11 -3 23 -21 31 -46 13 -46 27 -67 43
-67 7 0 7 4 -1 12 -7 7 -12 22 -12 35 0 13 -5 23 -11 23 -5 0 -8 4 -4 9 3 5 1
12 -5 16 -5 3 -10 15 -10 27 0 16 -3 18 -13 9 -10 -8 -17 -7 -25 1 -9 9 -12 9
-12 -1z"/>
<path d="M2710 191 l-25 -8 25 -5 25 -4 -27 -14 c-16 -7 -28 -17 -28 -22 0 -5
10 -3 23 4 12 7 25 11 30 10 4 -1 7 4 7 11 0 8 4 7 10 -3 8 -13 10 -12 10 3 0
10 -7 17 -17 17 -15 0 -16 2 -3 10 17 11 6 11 -30 1z"/>
<path d="M2570 181 c0 -13 11 -19 48 -26 17 -3 34 0 37 6 4 6 1 10 -6 8 -34
-4 -70 2 -64 11 3 6 1 10 -4 10 -6 0 -11 -4 -11 -9z"/>
<path d="M290 168 c-21 -9 -22 -12 -7 -15 9 -3 15 -8 13 -12 -3 -4 4 -7 15 -7
11 0 19 7 19 17 0 10 6 20 13 22 6 3 3 5 -8 6 -11 0 -31 -5 -45 -11z"/>
<path d="M1982 148 c-6 -6 -8 -16 -5 -23 2 -7 -4 -15 -14 -18 -10 -3 -2 -4 17
-2 19 1 34 6 33 11 -2 5 -7 9 -12 9 -5 0 -13 4 -18 9 -4 5 -3 6 4 2 6 -3 14
-2 17 3 9 14 -9 22 -22 9z"/>
<path d="M2076 144 c-4 -10 -13 -13 -27 -9 -19 6 -20 5 -9 -14 6 -12 15 -19
20 -16 6 3 7 0 4 -8 -3 -8 1 -19 8 -25 10 -8 14 -3 15 21 2 18 7 33 13 35 15
5 12 19 -4 25 -8 3 -17 -1 -20 -9z"/>
<path d="M2865 149 c-4 -6 -13 -8 -21 -5 -7 3 -16 0 -20 -6 -4 -7 -3 -8 4 -4
15 9 15 1 0 -24 -11 -17 -10 -22 2 -30 12 -8 11 -10 -7 -10 -12 0 -25 -5 -28
-10 -4 -6 -11 -8 -16 -5 -5 4 -9 -1 -9 -9 0 -8 3 -17 8 -20 8 -5 44 19 37 26
-2 2 11 10 31 17 30 11 33 14 19 25 -14 10 -14 13 -1 31 15 20 16 20 22 -3 7
-24 14 -24 58 -6 12 5 17 4 13 -3 -4 -6 3 -8 18 -5 14 2 25 9 25 14 0 5 -9 6
-20 3 -12 -4 -20 -2 -20 5 0 6 -5 8 -12 4 -8 -5 -9 -2 -5 9 5 13 1 17 -14 17
-11 0 -18 -4 -15 -8 3 -5 -1 -9 -9 -9 -8 0 -15 4 -15 9 0 12 -18 10 -25 -3z"/>
<path d="M2256 141 c-3 -5 1 -11 9 -15 8 -3 15 -12 15 -20 0 -7 7 -16 15 -20
8 -3 15 -1 15 4 0 5 14 7 30 5 17 -2 30 1 30 6 0 9 -14 13 -37 10 -7 -1 -13 3
-13 9 0 5 -9 10 -20 10 -11 0 -20 5 -20 10 0 12 -17 13 -24 1z"/>
<path d="M2350 133 c0 -4 9 -14 20 -21 11 -7 20 -19 20 -27 0 -8 5 -15 10 -15
17 0 -15 65 -33 68 -9 2 -17 0 -17 -5z"/>
<path d="M2630 121 c-15 -30 -12 -40 11 -34 14 4 19 12 16 24 -3 11 -1 17 4
13 5 -3 9 0 9 5 0 18 -29 12 -40 -8z"/>
<path d="M238 116 c-16 -12 -22 -28 -19 -54 1 -10 5 -10 17 2 8 9 13 20 10 25
-3 5 1 11 8 14 8 3 17 1 20 -6 3 -8 5 -8 5 -1 2 21 -23 33 -41 20z"/>
<path d="M1455 98 c4 -18 12 -37 18 -43 7 -7 8 -6 3 2 -3 6 0 14 6 16 10 4 10
6 1 6 -7 1 -13 12 -13 26 0 14 -5 25 -11 25 -7 0 -8 -12 -4 -32z"/>
<path d="M1787 114 c-11 -11 35 -39 60 -36 13 2 23 -1 23 -7 0 -6 7 -8 16 -4
15 5 15 7 0 15 -9 5 -29 8 -44 6 -18 -2 -26 2 -24 10 1 8 -2 11 -7 8 -5 -4
-11 -1 -13 5 -2 5 -7 7 -11 3z"/>
<path d="M345 99 c-5 -5 -19 -16 -30 -24 -19 -13 -19 -14 4 -8 19 5 22 3 17
-8 -4 -8 0 -5 8 5 9 11 16 26 16 33 0 15 -2 15 -15 2z"/>
<path d="M1514 88 c6 -28 25 -65 40 -77 22 -18 20 -1 -4 29 -11 14 -20 30 -20
37 0 6 -4 14 -9 17 -5 4 -8 0 -7 -6z"/>
<path d="M2230 92 c0 -6 9 -16 20 -22 11 -6 20 -7 20 -3 0 4 6 -1 13 -12 9
-11 16 -14 20 -8 4 6 -4 18 -18 27 -14 9 -25 14 -25 10 0 -4 -7 -1 -15 6 -10
8 -15 9 -15 2z"/>
<path d="M2930 95 c-1 -5 -2 -14 -1 -18 1 -5 -8 -5 -20 -2 -14 5 -19 3 -15 -3
3 -6 0 -12 -6 -15 -10 -4 -11 -7 0 -18 10 -11 12 -10 12 4 0 11 8 17 23 17 33
0 40 -10 19 -27 -9 -8 -11 -12 -4 -8 7 4 19 1 27 -5 23 -19 19 16 -4 39 -10
10 -21 25 -24 32 -3 8 -6 10 -7 4z"/>
<path d="M1370 80 c0 -5 5 -12 10 -15 13 -8 13 -45 -1 -45 -5 0 -7 -5 -3 -11
8 -14 25 12 29 46 1 16 -4 25 -16 28 -11 3 -19 1 -19 -3z"/>
<path d="M2016 65 c-8 -8 -19 -15 -25 -15 -5 0 -12 -4 -16 -9 -3 -6 4 -8 15
-6 27 5 26 -13 -2 -25 -21 -8 -20 -9 9 -9 23 -1 31 3 27 12 -3 8 3 20 12 28
15 12 17 12 9 0 -5 -10 -4 -12 3 -7 7 4 12 1 12 -7 0 -7 7 -14 15 -14 13 0 13
3 2 16 -8 9 -17 24 -20 34 -8 21 -21 22 -41 2z"/>
<path d="M253 41 c1 -5 -7 -17 -18 -25 -12 -9 -15 -15 -7 -16 7 0 20 7 29 15
8 8 19 13 24 10 5 -4 6 1 3 9 -6 17 -36 23 -31 7z"/>
<path d="M1490 37 c0 -10 -10 -22 -22 -27 -23 -9 -23 -9 -2 -9 29 -1 51 26 36
41 -9 9 -12 8 -12 -5z"/>
<path d="M2157 38 c-12 -9 -14 -17 -7 -28 8 -12 11 -11 16 8 4 14 12 21 20 18
7 -3 16 -1 19 4 9 14 -28 12 -48 -2z"/>
<path d="M1883 26 c15 -7 24 -15 21 -19 -4 -4 -2 -7 4 -7 18 0 14 27 -4 34
-31 12 -50 5 -21 -8z"/>
<path d="M2207 16 c-6 -14 50 -13 64 1 8 8 1 11 -25 10 -19 0 -37 -6 -39 -11z"/>
</g>
</svg>
